# Blender 3.1.0
# www.blender.org
mtllib clock.mtl
g Clock.003_Clock.003
v 3.133412 8.370531 2.108463
v 3.039921 8.961789 2.045553
v 2.025722 8.961789 3.053172
v 2.088022 8.370530 3.147071
v 0.703125 8.961789 3.595974
v 0.724749 8.370530 3.706566
v -0.726516 8.961789 3.591321
v -0.748860 8.370530 3.701770
v -2.045552 8.961789 3.039922
v -2.108462 8.370530 3.133413
v -3.053171 8.961789 2.025723
v -3.147070 8.370531 2.088023
v -3.595973 8.961790 0.703126
v -3.706565 8.370531 0.724750
v -3.591320 8.961790 -0.726515
v -3.701769 8.370531 -0.748860
v -3.039921 8.961790 -2.045551
v -3.133412 8.370531 -2.108461
v -2.025722 8.961790 -3.053170
v -2.088022 8.370532 -3.147069
v -0.703125 8.961790 -3.595971
v -0.724749 8.370532 -3.706563
v 0.726516 8.961790 -3.591319
v 0.748860 8.370532 -3.701768
v 2.045552 8.961790 -3.039920
v 2.108462 8.370532 -3.133411
v 3.053172 8.961790 -2.025720
v 3.147070 8.370531 -2.088020
v 3.595972 8.961790 -0.703124
v 3.706564 8.370531 -0.724749
v 2.642589 8.961790 -1.753306
v 1.770472 8.961790 -2.631119
v 1.653168 8.617738 -2.456793
v 2.467503 8.617738 -1.637141
v 3.591320 8.961790 0.726518
v 3.701769 8.370531 0.748860
v 2.425072 8.370532 -3.603929
v 0.861310 8.370532 -4.257633
v 2.835521 9.035235 1.908013
v 1.889515 9.035235 2.847881
v 0.655848 9.035235 3.354185
v -0.677666 9.035235 3.349845
v -1.908012 9.035235 2.835522
v -2.847880 9.035235 1.889516
v -3.354184 9.035235 0.655849
v -3.349844 9.035236 -0.677665
v -2.835520 9.035236 -1.908011
v -1.889515 9.035236 -2.847879
v -0.655848 9.035236 -3.354183
v 0.677666 9.035236 -3.349843
v 1.908012 9.035236 -2.835520
v 2.847880 9.035236 -1.889513
v 3.354184 9.035236 -0.655847
v 3.349844 9.035235 0.677668
v -0.061644 8.617737 0.304722
v 0.059660 8.617737 0.305116
v 0.035069 8.744369 0.179351
v -0.036235 8.744369 0.179119
v -3.112396 8.961790 0.608571
v -2.642589 8.961789 1.753309
v -2.467503 8.617737 1.637142
v -2.906183 8.617737 0.568250
v 3.112395 8.961790 -0.608570
v 2.906182 8.617737 -0.568249
v -3.108368 8.961790 -0.628815
v -2.902422 8.617737 -0.587153
v 3.108368 8.961790 0.628818
v 2.902422 8.617737 0.587155
v -2.631120 8.961790 -1.770471
v -2.456794 8.617738 -1.653169
v 1.753308 8.961789 2.642590
v 2.631120 8.961789 1.770472
v 2.456794 8.617737 1.653168
v 1.637142 8.617737 2.467504
v -1.753308 8.961790 -2.642587
v -1.637142 8.617738 -2.467502
v 0.608570 8.961789 3.112397
v 0.568249 8.617737 2.906184
v -0.608571 8.961790 -3.112394
v -0.568250 8.617738 -2.906181
v -0.628816 8.961789 3.108369
v -0.587154 8.617737 2.902423
v 0.628816 8.961790 -3.108367
v 0.587154 8.617738 -2.902421
v -1.770472 8.961789 2.631121
v -1.653168 8.617737 2.456795
v 2.527007 7.929690 -3.755415
v 0.897513 7.929690 -4.436595
v -3.619639 8.370531 2.401564
v -2.425073 8.370530 3.603931
v -0.833579 8.370532 -4.263147
v -2.401563 8.370532 -3.619639
v 4.257633 8.370531 0.861310
v 4.263148 8.370531 -0.833579
v -0.861310 8.370530 4.257634
v 0.833579 8.370530 4.263149
v -3.603930 8.370531 -2.425072
v -4.257633 8.370531 -0.861310
v 2.401563 8.370530 3.619641
v 3.603930 8.370531 2.425073
v 3.619640 8.370531 -2.401561
v -4.263149 8.370531 0.833579
v -3.771785 7.929689 2.502510
v -2.527007 7.929689 3.755417
v 3.771786 7.929690 -2.502507
v -4.442345 7.929690 0.868617
v 4.442344 7.929690 -0.868618
v -4.436596 7.929690 -0.897514
v 4.436596 7.929690 0.897514
v -3.755416 7.929690 -2.527006
v 2.502509 7.929689 3.771787
v 3.755416 7.929689 2.527008
v -2.502509 7.929690 -3.771785
v 0.868617 7.929689 4.442346
v -0.868618 7.929690 -4.442344
v -0.897514 7.929689 4.436596
v 0.257935 8.617737 0.173564
v 0.171881 8.617737 0.259060
v -0.173563 8.617737 0.257936
v -0.259059 8.617737 0.171882
v -0.305115 8.617737 0.059661
v -0.304721 8.617737 -0.061643
v -0.257935 8.617737 -0.173562
v -0.171881 8.617737 -0.259058
v -0.059659 8.617737 -0.305114
v 0.061644 8.617737 -0.304720
v 0.173563 8.617737 -0.257934
v 0.259059 8.617737 -0.171880
v 0.305115 8.617737 -0.059659
v 0.304721 8.617737 0.061646
v -0.102022 8.744369 0.151618
v 0.000000 8.744370 0.000001
v -0.035068 8.744370 -0.179349
v 0.036235 8.744370 -0.179117
v 0.102022 8.744370 -0.151616
v -0.152278 8.744369 0.101034
v 0.152278 8.744370 -0.101032
v -0.179350 8.744370 0.035070
v 0.179350 8.744370 -0.035068
v -0.179118 8.744370 -0.036234
v 0.179118 8.744370 0.036236
v -0.151617 8.744370 -0.102021
v 0.151617 8.744369 0.102023
v 0.101033 8.744369 0.152279
v -0.101033 8.744370 -0.152277
vn 0.4856 0.8108 0.3268
vn 0.6376 0.6398 0.4291
vn 0.4249 0.6398 0.6404
vn 0.3236 0.8108 0.4877
vn 0.1475 0.6398 0.7543
vn 0.1123 0.8108 0.5744
vn -0.1524 0.6398 0.7533
vn -0.1161 0.8108 0.5737
vn -0.4291 0.6398 0.6376
vn -0.3268 0.8108 0.4856
vn -0.6404 0.6398 0.4249
vn -0.4877 0.8108 0.3236
vn -0.7543 0.6398 0.1475
vn -0.5744 0.8108 0.1123
vn -0.7533 0.6398 -0.1524
vn -0.5737 0.8108 -0.1161
vn -0.6376 0.6398 -0.4291
vn -0.4856 0.8108 -0.3268
vn -0.4249 0.6398 -0.6404
vn -0.3236 0.8108 -0.4877
vn -0.1475 0.6398 -0.7543
vn -0.1123 0.8108 -0.5744
vn 0.1524 0.6398 -0.7533
vn 0.1161 0.8108 -0.5737
vn 0.4291 0.6398 -0.6376
vn 0.3268 0.8108 -0.4856
vn 0.6404 0.6398 -0.4249
vn 0.4877 0.8108 -0.3236
vn 0.7543 0.6398 -0.1475
vn 0.5744 0.8108 -0.1123
vn -0.4837 0.8143 0.3209
vn -0.3241 0.8143 0.4816
vn -0.2976 0.8461 0.4422
vn -0.4442 0.8461 0.2947
vn 0.7533 0.6398 0.1524
vn 0.5737 0.8108 0.1161
vn 0.3350 0.8000 -0.4978
vn 0.1190 0.8000 -0.5881
vn 0.0296 0.9994 0.0199
vn 0.0197 0.9994 0.0297
vn 0.0068 0.9994 0.0350
vn -0.0071 0.9994 0.0350
vn -0.0199 0.9994 0.0296
vn -0.0297 0.9994 0.0197
vn -0.0350 0.9994 0.0068
vn -0.0350 0.9994 -0.0071
vn -0.0296 0.9994 -0.0199
vn -0.0197 0.9994 -0.0297
vn -0.0068 0.9994 -0.0350
vn 0.0071 0.9994 -0.0350
vn 0.0199 0.9994 -0.0296
vn 0.0297 0.9994 -0.0197
vn 0.0350 0.9994 -0.0068
vn 0.0350 0.9994 0.0071
vn -0.0670 0.9412 0.3312
vn 0.0648 0.9412 0.3316
vn 0.0804 0.9080 0.4113
vn -0.0831 0.9080 0.4107
vn 0.5697 0.8143 -0.1114
vn 0.4837 0.8143 -0.3209
vn 0.4442 0.8461 -0.2947
vn 0.5231 0.8461 -0.1023
vn -0.5697 0.8143 0.1114
vn -0.5231 0.8461 0.1023
vn 0.5689 0.8143 0.1151
vn 0.5224 0.8461 0.1057
vn -0.5689 0.8143 -0.1151
vn -0.5224 0.8461 -0.1057
vn 0.4816 0.8143 0.3241
vn 0.4422 0.8461 0.2976
vn -0.3209 0.8143 -0.4837
vn -0.4816 0.8143 -0.3241
vn -0.4422 0.8461 -0.2976
vn -0.2947 0.8461 -0.4442
vn 0.3209 0.8143 0.4837
vn 0.2947 0.8461 0.4442
vn -0.1114 0.8143 -0.5697
vn -0.1023 0.8461 -0.5231
vn 0.1114 0.8143 0.5697
vn 0.1023 0.8461 0.5231
vn 0.1151 0.8143 -0.5689
vn 0.1057 0.8461 -0.5224
vn -0.1151 0.8143 0.5689
vn -0.1057 0.8461 0.5224
vn 0.3241 0.8143 -0.4816
vn 0.2976 0.8461 -0.4422
vn 0.5158 0.3827 -0.7665
vn 0.1832 0.3827 -0.9055
vn -0.4999 0.8000 0.3317
vn -0.3350 0.8000 0.4978
vn -0.1151 0.8000 -0.5888
vn -0.3317 0.8000 -0.4999
vn 0.5881 0.8000 0.1190
vn 0.5888 0.8000 -0.1151
vn -0.1190 0.8000 0.5881
vn 0.1151 0.8000 0.5888
vn -0.4978 0.8000 -0.3350
vn -0.5881 0.8000 -0.1190
vn 0.3317 0.8000 0.4999
vn 0.4978 0.8000 0.3350
vn 0.4999 0.8000 -0.3317
vn -0.5888 0.8000 0.1151
vn -0.7699 0.3827 0.5108
vn -0.5158 0.3827 0.7665
vn 0.7699 0.3827 -0.5108
vn -0.9067 0.3827 0.1773
vn 0.9067 0.3827 -0.1773
vn -0.9055 0.3827 -0.1832
vn 0.9055 0.3827 0.1832
vn -0.7665 0.3827 -0.5158
vn 0.5108 0.3827 0.7699
vn 0.7665 0.3827 0.5158
vn -0.5108 0.3827 -0.7699
vn 0.1773 0.3827 0.9067
vn -0.1773 0.3827 -0.9067
vn -0.1832 0.3827 0.9055
vn 0.2804 0.9412 0.1887
vn 0.1868 0.9412 0.2816
vn -0.1887 0.9412 0.2804
vn -0.2816 0.9412 0.1868
vn -0.3316 0.9412 0.0648
vn -0.3312 0.9412 -0.0670
vn -0.2804 0.9412 -0.1887
vn -0.1868 0.9412 -0.2816
vn -0.0648 0.9412 -0.3316
vn 0.0670 0.9412 -0.3312
vn 0.1887 0.9412 -0.2804
vn 0.2816 0.9412 -0.1868
vn 0.3316 0.9412 -0.0648
vn 0.3312 0.9412 0.0670
vn -0.2340 0.9080 0.3477
vn -0.0000 1.0000 -0.0000
vn -0.0804 0.9080 -0.4113
vn 0.0831 0.9080 -0.4107
vn 0.2340 0.9080 -0.3477
vn -0.3492 0.9080 0.2317
vn 0.3492 0.9080 -0.2317
vn -0.4113 0.9080 0.0804
vn 0.4113 0.9080 -0.0804
vn -0.4107 0.9080 -0.0831
vn 0.4107 0.9080 0.0831
vn -0.3477 0.9080 -0.2340
vn 0.3477 0.9080 0.2340
vn 0.2317 0.9080 0.3492
vn -0.2317 0.9080 -0.3492
vt 0.723485 0.300054
vt 0.681036 0.327824
vt 0.602983 0.249914
vt 0.631577 0.208014
vt 0.501056 0.207798
vt 0.511441 0.158143
vt 0.390765 0.207892
vt 0.381356 0.158039
vt 0.288902 0.250190
vt 0.261126 0.207732
vt 0.210988 0.328258
vt 0.169080 0.299666
vt 0.168885 0.430196
vt 0.119229 0.419819
vt 0.168995 0.540481
vt 0.119149 0.549895
vt 0.211296 0.642329
vt 0.168846 0.670098
vt 0.289348 0.720239
vt 0.260754 0.762139
vt 0.391275 0.762355
vt 0.380890 0.812010
vt 0.501566 0.762261
vt 0.510975 0.812114
vt 0.603429 0.719963
vt 0.631205 0.762421
vt 0.681343 0.641895
vt 0.723252 0.670487
vt 0.723446 0.539957
vt 0.773103 0.550334
vt 0.648411 0.619816
vt 0.581453 0.686958
vt 0.564381 0.661953
vt 0.623069 0.603248
vt 0.723336 0.429671
vt 0.773182 0.420258
vt 0.658667 0.803999
vt 0.520430 0.861032
vt 0.664257 0.339089
vt 0.591791 0.266742
vt 0.497155 0.227629
vt 0.394751 0.227708
vt 0.300170 0.266973
vt 0.227820 0.339450
vt 0.188717 0.434094
vt 0.188808 0.536494
vt 0.228075 0.631064
vt 0.300540 0.703411
vt 0.395176 0.742524
vt 0.497580 0.742445
vt 0.592162 0.703180
vt 0.664512 0.630703
vt 0.703614 0.536059
vt 0.703523 0.433659
vt 0.440525 0.462619
vt 0.449548 0.462170
vt 0.447959 0.474064
vt 0.443608 0.474216
vt 0.207758 0.437991
vt 0.243921 0.350337
vt 0.269262 0.366905
vt 0.237509 0.443599
vt 0.684574 0.532162
vt 0.654823 0.526554
vt 0.207890 0.532808
vt 0.237521 0.526605
vt 0.684442 0.437345
vt 0.654810 0.443548
vt 0.244294 0.620357
vt 0.269296 0.603287
vt 0.580903 0.282840
vt 0.648038 0.349796
vt 0.623036 0.366866
vt 0.564336 0.308178
vt 0.311428 0.687313
vt 0.327995 0.661975
vt 0.493256 0.246669
vt 0.487646 0.276420
vt 0.399075 0.723484
vt 0.404686 0.693733
vt 0.398436 0.246792
vt 0.404638 0.276427
vt 0.493896 0.723361
vt 0.487694 0.693727
vt 0.310878 0.283195
vt 0.327951 0.308200
vt 0.683981 0.841083
vt 0.529617 0.904974
vt 0.127798 0.271770
vt 0.233664 0.166154
vt 0.370907 0.860818
vt 0.232856 0.803410
vt 0.822091 0.410796
vt 0.821912 0.560307
vt 0.371902 0.109121
vt 0.521425 0.109335
vt 0.127280 0.697553
vt 0.070241 0.559357
vt 0.659475 0.166743
vt 0.765051 0.272600
vt 0.764533 0.698383
vt 0.070419 0.409846
vt 0.090223 0.247205
vt 0.208351 0.129070
vt 0.802108 0.722948
vt 0.026309 0.401531
vt 0.866023 0.568622
vt 0.026309 0.568552
vt 0.866023 0.401601
vt 0.090210 0.722857
vt 0.684044 0.129180
vt 0.802121 0.247296
vt 0.208288 0.840972
vt 0.529751 0.065227
vt 0.362580 0.904926
vt 0.362714 0.065179
vt 0.464755 0.471272
vt 0.458057 0.465209
vt 0.432361 0.466487
vt 0.426298 0.473185
vt 0.423260 0.481692
vt 0.423709 0.490716
vt 0.427576 0.498881
vt 0.434274 0.504944
vt 0.442783 0.507983
vt 0.451806 0.507533
vt 0.459971 0.503666
vt 0.466033 0.496968
vt 0.469071 0.488461
vt 0.468623 0.479437
vt 0.439647 0.476021
vt 0.446166 0.485077
vt 0.444373 0.496089
vt 0.448723 0.495937
vt 0.452685 0.494132
vt 0.436678 0.479205
vt 0.455654 0.490948
vt 0.435153 0.483283
vt 0.457178 0.486870
vt 0.435305 0.487634
vt 0.457026 0.482519
vt 0.437111 0.491595
vt 0.455221 0.478558
vt 0.452037 0.475589
vt 0.440295 0.494564
s 1
g Clock.003_Clock.003
usemtl Clock.002
f 1/1/1 2/2/2 3/3/3 4/4/4
f 4/4/4 3/3/3 5/5/5 6/6/6
f 6/6/6 5/5/5 7/7/7 8/8/8
f 8/8/8 7/7/7 9/9/9 10/10/10
f 10/10/10 9/9/9 11/11/11 12/12/12
f 12/12/12 11/11/11 13/13/13 14/14/14
f 14/14/14 13/13/13 15/15/15 16/16/16
f 16/16/16 15/15/15 17/17/17 18/18/18
f 18/18/18 17/17/17 19/19/19 20/20/20
f 20/20/20 19/19/19 21/21/21 22/22/22
f 22/22/22 21/21/21 23/23/23 24/24/24
f 24/24/24 23/23/23 25/25/25 26/26/26
f 26/26/26 25/25/25 27/27/27 28/28/28
f 28/28/28 27/27/27 29/29/29 30/30/30
f 31/31/31 32/32/32 33/33/33 34/34/34
f 30/30/30 29/29/29 35/35/35 36/36/36
f 36/36/36 35/35/35 2/2/2 1/1/1
f 24/24/24 26/26/26 37/37/37 38/38/38
f 39/39/39 40/40/40 3/3/3 2/2/2
f 40/40/40 41/41/41 5/5/5 3/3/3
f 41/41/41 42/42/42 7/7/7 5/5/5
f 42/42/42 43/43/43 9/9/9 7/7/7
f 43/43/43 44/44/44 11/11/11 9/9/9
f 44/44/44 45/45/45 13/13/13 11/11/11
f 45/45/45 46/46/46 15/15/15 13/13/13
f 46/46/46 47/47/47 17/17/17 15/15/15
f 47/47/47 48/48/48 19/19/19 17/17/17
f 48/48/48 49/49/49 21/21/21 19/19/19
f 49/49/49 50/50/50 23/23/23 21/21/21
f 50/50/50 51/51/51 25/25/25 23/23/23
f 51/51/51 52/52/52 27/27/27 25/25/25
f 52/52/52 53/53/53 29/29/29 27/27/27
f 53/53/53 54/54/54 35/35/35 29/29/29
f 54/54/54 39/39/39 2/2/2 35/35/35
f 55/55/55 56/56/56 57/57/57 58/58/58
f 59/59/59 60/60/60 61/61/61 62/62/62
f 63/63/63 31/31/31 34/34/34 64/64/64
f 65/65/65 59/59/59 62/62/62 66/66/66
f 67/67/67 63/63/63 64/64/64 68/68/68
f 69/69/69 65/65/65 66/66/66 70/70/70
f 71/71/71 72/72/72 73/73/73 74/74/74
f 72/72/72 67/67/67 68/68/68 73/73/73
f 75/75/75 69/69/69 70/70/70 76/76/76
f 77/77/77 71/71/71 74/74/74 78/78/78
f 79/79/79 75/75/75 76/76/76 80/80/80
f 81/81/81 77/77/77 78/78/78 82/82/82
f 83/83/83 79/79/79 80/80/80 84/84/84
f 85/85/85 81/81/81 82/82/82 86/86/86
f 32/32/32 83/83/83 84/84/84 33/33/33
f 60/60/60 85/85/85 86/86/86 61/61/61
f 38/38/38 37/37/37 87/87/87 88/88/88
f 10/10/10 12/12/12 89/89/89 90/90/90
f 20/20/20 22/22/22 91/91/91 92/92/92
f 30/30/30 36/36/36 93/93/93 94/94/94
f 6/6/6 8/8/8 95/95/95 96/96/96
f 16/16/16 18/18/18 97/97/97 98/98/98
f 1/1/1 4/4/4 99/99/99 100/100/100
f 26/26/26 28/28/28 101/101/101 37/37/37
f 12/12/12 14/14/14 102/102/102 89/89/89
f 22/22/22 24/24/24 38/38/38 91/91/91
f 36/36/36 1/1/1 100/100/100 93/93/93
f 8/8/8 10/10/10 90/90/90 95/95/95
f 18/18/18 20/20/20 92/92/92 97/97/97
f 28/28/28 30/30/30 94/94/94 101/101/101
f 4/4/4 6/6/6 96/96/96 99/99/99
f 14/14/14 16/16/16 98/98/98 102/102/102
f 90/90/90 89/89/89 103/103/103 104/104/104
f 37/37/37 101/101/101 105/105/105 87/87/87
f 89/89/89 102/102/102 106/106/106 103/103/103
f 101/101/101 94/94/94 107/107/107 105/105/105
f 102/102/102 98/98/98 108/108/108 106/106/106
f 94/94/94 93/93/93 109/109/109 107/107/107
f 98/98/98 97/97/97 110/110/110 108/108/108
f 100/100/100 99/99/99 111/111/111 112/112/112
f 93/93/93 100/100/100 112/112/112 109/109/109
f 97/97/97 92/92/92 113/113/113 110/110/110
f 99/99/99 96/96/96 114/114/114 111/111/111
f 92/92/92 91/91/91 115/115/115 113/113/113
f 96/96/96 95/95/95 116/116/116 114/114/114
f 91/91/91 38/38/38 88/88/88 115/115/115
f 95/95/95 90/90/90 104/104/104 116/116/116
f 67/67/67 72/72/72 39/39/39 54/54/54
f 63/63/63 67/67/67 54/54/54 53/53/53
f 31/31/31 63/63/63 53/53/53 52/52/52
f 32/32/32 31/31/31 52/52/52 51/51/51
f 83/83/83 32/32/32 51/51/51 50/50/50
f 79/79/79 83/83/83 50/50/50 49/49/49
f 75/75/75 79/79/79 49/49/49 48/48/48
f 69/69/69 75/75/75 48/48/48 47/47/47
f 65/65/65 69/69/69 47/47/47 46/46/46
f 59/59/59 65/65/65 46/46/46 45/45/45
f 60/60/60 59/59/59 45/45/45 44/44/44
f 85/85/85 60/60/60 44/44/44 43/43/43
f 81/81/81 85/85/85 43/43/43 42/42/42
f 77/77/77 81/81/81 42/42/42 41/41/41
f 71/71/71 77/77/77 41/41/41 40/40/40
f 72/72/72 71/71/71 40/40/40 39/39/39
f 117/117/117 118/118/118 74/74/74 73/73/73
f 118/118/118 56/56/56 78/78/78 74/74/74
f 56/56/56 55/55/55 82/82/82 78/78/78
f 55/55/55 119/119/119 86/86/86 82/82/82
f 119/119/119 120/120/120 61/61/61 86/86/86
f 120/120/120 121/121/121 62/62/62 61/61/61
f 121/121/121 122/122/122 66/66/66 62/62/62
f 122/122/122 123/123/123 70/70/70 66/66/66
f 123/123/123 124/124/124 76/76/76 70/70/70
f 124/124/124 125/125/125 80/80/80 76/76/76
f 125/125/125 126/126/126 84/84/84 80/80/80
f 126/126/126 127/127/127 33/33/33 84/84/84
f 127/127/127 128/128/128 34/34/34 33/33/33
f 128/128/128 129/129/129 64/64/64 34/34/34
f 129/129/129 130/130/130 68/68/68 64/64/64
f 130/130/130 117/117/117 73/73/73 68/68/68
f 131/131/131 58/58/58 132/132/132
f 126/126/126 125/125/125 133/133/133 134/134/134
f 119/119/119 55/55/55 58/58/58 131/131/131
f 127/127/127 126/126/126 134/134/134 135/135/135
f 120/120/120 119/119/119 131/131/131 136/136/136
f 128/128/128 127/127/127 135/135/135 137/137/137
f 121/121/121 120/120/120 136/136/136 138/138/138
f 129/129/129 128/128/128 137/137/137 139/139/139
f 122/122/122 121/121/121 138/138/138 140/140/140
f 130/130/130 129/129/129 139/139/139 141/141/141
f 123/123/123 122/122/122 140/140/140 142/142/142
f 118/118/118 117/117/117 143/143/143 144/144/144
f 117/117/117 130/130/130 141/141/141 143/143/143
f 124/124/124 123/123/123 142/142/142 145/145/145
f 56/56/56 118/118/118 144/144/144 57/57/57
f 125/125/125 124/124/124 145/145/145 133/133/133
f 135/135/135 134/134/134 132/132/132
f 136/136/136 131/131/131 132/132/132
f 137/137/137 135/135/135 132/132/132
f 138/138/138 136/136/136 132/132/132
f 139/139/139 137/137/137 132/132/132
f 140/140/140 138/138/138 132/132/132
f 141/141/141 139/139/139 132/132/132
f 142/142/142 140/140/140 132/132/132
f 144/144/144 143/143/143 132/132/132
f 143/143/143 141/141/141 132/132/132
f 145/145/145 142/142/142 132/132/132
f 57/57/57 144/144/144 132/132/132
f 133/133/133 145/145/145 132/132/132
f 58/58/58 57/57/57 132/132/132
f 134/134/134 133/133/133 132/132/132
