# Blender 3.1.0
# www.blender.org
mtllib clockhand2.mtl
g Clock.001_Clock.004
v 0.017711 8.692469 0.092203
v -0.574548 8.692469 -0.226517
v 0.084792 8.692469 -0.015558
v 0.017711 8.713722 0.092203
v 0.084792 8.713722 -0.015558
v -0.574548 8.713722 -0.226517
v -0.447069 8.713722 -0.431303
v -0.850411 8.713722 -0.362817
v -1.111300 8.713722 -0.523174
v -0.691147 8.713722 -0.618664
v -0.850411 8.692469 -0.362817
v -0.691147 8.692469 -0.618664
v -1.111300 8.692469 -0.523174
v -1.957602 8.692469 -1.129453
v -0.950200 8.692469 -0.781969
v -1.867801 8.692469 -1.273711
v -0.950200 8.713722 -0.781969
v -1.867801 8.713722 -1.273711
v -1.957602 8.713722 -1.129453
v -0.447069 8.692469 -0.431303
vn -0.3224 -0.7110 0.6249
vn 0.2094 -0.5807 0.7867
vn 0.2094 0.5807 0.7867
vn -0.3224 0.7110 0.6249
vn 0.4336 -0.7061 -0.5598
vn 0.7999 -0.5832 -0.1416
vn 0.7999 0.5832 -0.1416
vn 0.4336 0.7061 -0.5598
vn 0.4100 0.6969 -0.5884
vn -0.3470 0.6969 0.6277
vn -0.3470 -0.6969 0.6277
vn -0.3956 -0.6993 0.5954
vn -0.3956 0.6993 0.5954
vn 0.3597 0.6993 -0.6178
vn 0.4100 -0.6969 -0.5884
vn 0.3597 -0.6993 -0.6178
vn -0.7984 -0.5808 0.1587
vn -0.7984 0.5808 0.1587
vn -0.2101 -0.5808 -0.7864
vn -0.2101 0.5808 -0.7864
vt 0.030020 0.944615
vt 0.914620 0.071860
vt 0.892551 0.206971
vt 0.028231 0.916300
vt 0.035375 0.944615
vt 0.950427 0.070811
vt 0.922973 0.082172
vt 0.942766 0.084070
vt 0.903749 0.208270
vt 0.965752 0.208009
vt 0.897523 0.280849
vt 0.896072 0.355217
vt 0.971691 0.282758
vt 0.885068 0.280125
vt 0.026963 0.903382
vt 0.039676 0.903382
vt 0.984042 0.282235
vt 0.883287 0.355753
vt 0.026889 0.890464
vt 0.029735 0.846641
vt 0.906630 0.560517
vt 0.039749 0.890464
vt 0.984042 0.354610
vt 0.036903 0.846641
vt 0.964588 0.558281
vt 0.973047 0.354319
vt 0.954851 0.550745
vt 0.916654 0.550163
vt 0.038407 0.916300
vt 0.978435 0.206334
s 1
g Clock.001_Clock.004
usemtl Clock.002
f 2/3/1 1/2/2 4/7/3 6/9/4
f 1/1/2 2/4/1 20/29/5 3/5/6
f 1/2/2 3/6/6 5/8/7 4/7/3
f 4/7/3 5/8/7 7/10/8 6/9/4
f 10/13/9 8/11/10 6/9/4 7/10/8
f 11/14/11 2/3/1 6/9/4 8/11/10
f 13/18/12 11/14/11 8/11/10 9/12/13
f 17/26/14 9/12/13 8/11/10 10/13/9
f 12/16/15 20/29/5 2/4/1 11/15/11
f 15/22/16 12/16/15 11/15/11 13/19/12
f 14/21/17 13/18/12 9/12/13 19/28/18
f 13/19/12 14/20/17 16/24/19 15/22/16
f 15/23/16 16/25/19 18/27/20 17/26/14
f 12/17/15 15/23/16 17/26/14 10/13/9
f 9/12/13 17/26/14 18/27/20 19/28/18
f 16/25/19 14/21/17 19/28/18 18/27/20
f 20/30/5 12/17/15 10/13/9 7/10/8
f 3/6/6 20/30/5 7/10/8 5/8/7
