# Blender 3.1.0
# www.blender.org
mtllib FullShelf.mtl
o ShelfBracket_Low
v 2.994266 1.933776 1.414194
v 2.967498 2.507116 1.375329
v 2.414995 2.515680 1.375601
v 2.420578 1.956023 1.390719
v 3.041335 2.611474 -1.086097
v 3.048980 2.567960 -1.378376
v 3.048980 4.427128 -1.378375
v 3.029721 4.417930 -1.097681
v 3.062599 2.531883 -1.081760
v 3.052061 1.921044 -1.170787
v 3.048980 1.924780 -1.378376
v 3.048981 2.483382 -1.378376
v 3.004782 2.577080 -1.000713
v 2.405677 2.560322 -1.008523
v 2.417558 2.556548 1.353215
v 2.971637 2.551732 1.342708
v 2.380252 1.958898 1.354278
v 2.389648 2.513858 1.356870
v 2.373416 2.525996 -1.004799
v 2.366284 1.929682 -1.088061
v 2.366284 1.929553 -1.170783
v 2.365622 2.527521 -1.082862
v 2.364045 2.483382 -1.378376
v 2.366284 1.929042 -1.378375
v 2.403327 2.613441 -1.059245
v 3.004368 2.620072 -1.044109
v 2.993363 4.413975 -1.060317
v 2.411800 4.409866 -1.091594
v 3.052154 1.920792 -1.088075
v 3.043357 2.535182 -1.001422
v 3.009172 2.508958 1.339451
v 3.033522 1.934299 1.370897
v 3.006035 1.886052 -1.171389
v 2.396820 1.898154 -1.171618
v 2.396261 1.894949 -1.378377
v 3.007029 1.885278 -1.378380
v 2.407416 4.442507 -1.107178
v 2.998191 4.450243 -1.094507
v 3.007552 4.467415 -1.378375
v 2.396554 4.456933 -1.378401
v 2.364045 2.567961 -1.378376
v 2.378631 2.610712 -1.092569
v 2.378112 4.412603 -1.110494
v 2.367446 4.423244 -1.378375
v 2.422685 1.917556 1.354837
v 2.397447 1.898741 -1.088743
v 2.996498 1.898894 1.375265
v 3.005554 1.886908 -1.088713
v 3.538398 2.029056 1.302679
v 3.530092 2.429377 1.291109
v -3.528687 2.408284 1.250721
v -3.525406 2.033232 1.285111
v 3.571325 2.478613 -1.357240
v -3.552609 2.472984 -1.358003
v -3.529287 2.430782 1.233717
v 3.531055 2.451423 1.269725
v -3.546766 2.035330 1.261469
v -3.548886 2.410744 1.235078
v -3.569429 2.442286 -1.356048
v -3.582048 2.006515 -1.357657
v 3.587497 2.004490 -1.359034
v 3.594041 2.457170 -1.358634
v 3.545450 2.430147 1.270005
v 3.557045 2.033838 1.279292
v -3.526210 2.013471 1.265544
v 3.534842 2.009727 1.279597
v -3.562857 1.984822 -1.357728
v 3.565703 1.984968 -1.359138
v -2.425156 1.933776 1.414194
v -2.451925 2.507116 1.375329
v -3.004428 2.515680 1.375601
v -2.998845 1.956023 1.390719
v -2.378088 2.611474 -1.086097
v -2.370443 2.567960 -1.378376
v -2.370443 4.427128 -1.378375
v -2.389702 4.417930 -1.097681
v -2.356824 2.531883 -1.081760
v -2.367362 1.921044 -1.170787
v -2.370443 1.924780 -1.378376
v -2.370442 2.483382 -1.378376
v -2.414641 2.577080 -1.000713
v -3.013746 2.560322 -1.008523
v -3.001865 2.556548 1.353215
v -2.447786 2.551732 1.342708
v -3.039171 1.958898 1.354278
v -3.029774 2.513858 1.356870
v -3.046007 2.525996 -1.004799
v -3.053138 1.929682 -1.088061
v -3.053138 1.929553 -1.170783
v -3.053800 2.527521 -1.082862
v -3.055378 2.483382 -1.378376
v -3.053138 1.929042 -1.378375
v -3.016096 2.613441 -1.059245
v -2.415055 2.620072 -1.044109
v -2.426059 4.413975 -1.060317
v -3.007622 4.409866 -1.091594
v -2.367268 1.920792 -1.088075
v -2.376066 2.535182 -1.001422
v -2.410250 2.508958 1.339451
v -2.385901 1.934299 1.370897
v -2.413388 1.886052 -1.171389
v -3.022603 1.898154 -1.171618
v -3.023162 1.894949 -1.378377
v -2.412393 1.885278 -1.378380
v -3.012007 4.442507 -1.107178
v -2.421232 4.450243 -1.094507
v -2.411871 4.467415 -1.378375
v -3.022869 4.456933 -1.378401
v -3.055378 2.567961 -1.378376
v -3.040791 2.610712 -1.092569
v -3.041311 4.412603 -1.110494
v -3.051977 4.423244 -1.378375
v -2.996738 1.917556 1.354837
v -3.021975 1.898741 -1.088743
v -2.422925 1.898894 1.375265
v -2.413869 1.886908 -1.088713
vn 0.3258 -0.3184 0.8902
vn 0.3196 0.2885 0.9026
vn -0.3207 0.2730 0.9070
vn -0.3396 -0.3276 0.8817
vn 0.9435 0.1697 0.2846
vn 0.9974 0.0715 0.0048
vn 0.9211 0.3842 0.0624
vn 0.8697 0.3362 0.3614
vn 0.9828 0.1415 0.1186
vn 0.8969 -0.4417 0.0186
vn 0.9068 -0.4210 -0.0228
vn 0.9981 0.0537 -0.0315
vn 0.4866 0.8036 0.3428
vn -0.5380 0.7740 0.3340
vn -0.3683 0.8323 0.4144
vn 0.3659 0.8277 0.4256
vn -0.8674 -0.3327 0.3700
vn -0.8691 0.2817 0.4065
vn -0.9566 0.2720 0.1047
vn -0.9239 -0.3820 0.0209
vn -0.9275 -0.3734 0.0163
vn -0.9851 0.1276 0.1150
vn -0.9994 0.0339 0.0091
vn -0.9305 -0.3662 0.0056
vn -0.5146 0.3330 0.7901
vn 0.4789 0.3511 0.8046
vn 0.3204 0.2880 0.9024
vn -0.3084 0.2552 0.9164
vn 0.8985 -0.4369 0.0416
vn 0.9402 0.3060 0.1497
vn 0.8726 0.3315 0.3588
vn 0.8733 -0.3418 0.3471
vn 0.3203 -0.9473 0.0037
vn -0.4025 -0.9154 0.0084
vn -0.4080 -0.9129 0.0091
vn 0.3364 -0.9417 0.0005
vn -0.3462 0.8127 0.4687
vn 0.3404 0.8360 0.4305
vn 0.3762 0.9240 0.0682
vn -0.4127 0.9086 0.0640
vn -0.9986 0.0433 0.0294
vn -0.9444 0.1303 0.3018
vn -0.8596 0.2931 0.4186
vn -0.9286 0.3668 0.0571
vn -0.3507 -0.8722 0.3410
vn -0.3925 -0.9197 0.0090
vn 0.3096 -0.8855 0.3464
vn 0.3158 -0.9488 0.0072
vn 0.4082 -0.3559 0.8407
vn 0.3850 0.3312 0.8614
vn -0.3190 0.3319 0.8878
vn -0.3462 -0.3201 0.8818
vn 0.4224 0.9062 0.0181
vn -0.4485 0.8936 0.0160
vn -0.3725 0.8407 0.3929
vn 0.3848 0.8506 0.3584
vn -0.8886 -0.2967 0.3499
vn -0.8754 0.3107 0.3702
vn -0.9475 0.3196 0.0136
vn -0.9341 -0.3567 0.0152
vn 0.9234 -0.3835 0.0165
vn 0.9373 0.3480 0.0184
vn 0.8994 0.3124 0.3057
vn 0.9025 -0.3188 0.2897
vn -0.3679 -0.8631 0.3461
vn 0.3444 -0.8861 0.3103
vn -0.4059 -0.9138 0.0151
vn 0.3819 -0.9241 0.0139
vn 0.9981 0.0538 -0.0315
vn -0.9239 -0.3820 0.0208
vt 0.280409 0.400490
vt 0.000231 0.163982
vt 0.424006 0.408140
vt 0.000231 0.220258
vt 0.425327 0.546258
vt 0.003703 0.353674
vt 0.285391 0.544034
vt 0.007035 0.024680
vt 0.591296 0.222149
vt 0.010549 0.846375
vt 0.664376 0.211242
vt 0.664567 0.675971
vt 0.496119 0.385929
vt 0.594237 0.673711
vt 0.425970 0.391451
vt 0.053542 0.393544
vt 0.000231 0.864758
vt 0.697099 0.613053
vt 0.590239 0.201555
vt 0.849768 0.635593
vt 0.641192 0.189199
vt 0.848761 0.687487
vt 0.695816 0.189638
vt 0.709130 0.687290
vt 0.664567 0.190101
vt 0.028169 0.864542
vt 0.589776 0.204168
vt 0.589776 0.372317
vt 0.185428 0.865760
vt 0.014618 0.349440
vt 0.014845 0.222418
vt 0.994172 0.683330
vt 0.016790 0.013583
vt 0.286241 0.557613
vt 0.855433 0.684380
vt 0.424940 0.554139
vt 0.009461 0.361432
vt 0.190911 0.874731
vt 0.588216 0.385466
vt 0.850760 0.094039
vt 0.618601 0.001137
vt 0.999769 0.072800
vt 0.999755 0.052123
vt 0.640621 0.000847
vt 0.205578 0.865262
vt 0.850332 0.074430
vt 0.206040 0.860044
vt 0.861202 0.000536
vt 0.279947 0.870829
vt 0.999769 0.000231
vt 0.695778 0.000231
vt 0.189161 0.847812
vt 0.025002 0.848466
vt 0.065276 0.397539
vt 0.196221 0.397423
vt 0.849870 0.614918
vt 0.619662 0.188772
vt 0.018481 0.875402
vt 0.696401 0.592398
vt 0.589537 0.190101
vt 0.706051 0.007240
vt 0.011506 0.208077
vt 0.425327 0.394451
vt 0.849870 0.000231
vt 0.011916 0.175514
vt 0.281590 0.385929
vt 0.641512 0.174140
vt 0.641003 0.012492
vt 0.695938 0.012286
vt 0.695938 0.174483
vt 0.198038 0.388993
vt 0.428980 0.550449
vt 0.062701 0.385929
vt 0.425790 0.402763
vt 0.496874 0.400354
vt 0.496874 0.553105
vt 0.279875 0.849687
vt 0.208343 0.838983
vt 0.199805 0.846670
vt 0.212932 0.388572
vt 0.429293 0.560943
vt 0.205578 0.396255
vt 0.279947 0.385929
vt 0.496280 0.564218
vt 0.019478 0.027937
vt 0.618998 0.012810
vt 0.013633 0.162680
vt 0.620002 0.174152
vt 0.873004 0.004362
vt 0.000186 0.841569
vt 0.929193 0.005393
vt 0.471436 0.084452
vt 0.928860 0.995722
vt 0.441172 0.856958
vt 0.876021 0.995374
vt 0.032199 0.084808
vt 0.872633 0.007085
vt 0.872633 0.990936
vt 0.451637 0.856673
vt 0.483259 0.085801
vt 0.990937 0.738249
vt 0.040950 0.077455
vt 0.876614 0.999814
vt 0.938230 0.735123
vt 0.929410 0.999281
vt 0.447314 0.864600
vt 0.929781 0.371663
vt 0.869544 0.998829
vt 0.990937 0.370746
vt 0.439462 0.000186
vt 0.993292 0.370375
vt 0.438287 0.993419
vt 0.929781 0.369632
vt 0.871639 0.000186
vt 0.937657 0.000851
vt 0.480188 0.078162
vt 0.929410 0.001736
vt 0.993292 0.000186
vt 0.006545 0.849087
vt 0.873792 0.000186
vt 0.042361 0.085802
vt 0.010090 0.840540
vt 0.440800 0.007144
vt 0.440800 0.985881
vt 0.280409 0.400490
vt 0.000231 0.163982
vt 0.424006 0.408140
vt 0.000231 0.220258
vt 0.425327 0.546258
vt 0.003703 0.353674
vt 0.285391 0.544034
vt 0.007035 0.024680
vt 0.591296 0.222149
vt 0.010549 0.846375
vt 0.664376 0.211242
vt 0.664567 0.675971
vt 0.496119 0.385929
vt 0.594237 0.673711
vt 0.425970 0.391451
vt 0.053542 0.393544
vt 0.000231 0.864758
vt 0.697099 0.613053
vt 0.590239 0.201555
vt 0.849768 0.635593
vt 0.641192 0.189199
vt 0.848761 0.687487
vt 0.695816 0.189638
vt 0.709130 0.687290
vt 0.664567 0.190101
vt 0.028169 0.864542
vt 0.589776 0.204168
vt 0.589776 0.372317
vt 0.185428 0.865760
vt 0.014618 0.349440
vt 0.014845 0.222418
vt 0.994172 0.683330
vt 0.016790 0.013583
vt 0.286241 0.557613
vt 0.855433 0.684380
vt 0.424940 0.554139
vt 0.009461 0.361432
vt 0.190911 0.874731
vt 0.588216 0.385466
vt 0.850760 0.094039
vt 0.618601 0.001137
vt 0.999769 0.072800
vt 0.999755 0.052123
vt 0.640621 0.000847
vt 0.205578 0.865262
vt 0.850332 0.074430
vt 0.206040 0.860044
vt 0.861202 0.000536
vt 0.279947 0.870829
vt 0.999769 0.000231
vt 0.695778 0.000231
vt 0.189161 0.847812
vt 0.025002 0.848466
vt 0.065276 0.397539
vt 0.196221 0.397423
vt 0.849870 0.614918
vt 0.619662 0.188772
vt 0.018481 0.875402
vt 0.696401 0.592398
vt 0.589537 0.190101
vt 0.706051 0.007240
vt 0.011506 0.208077
vt 0.425327 0.394451
vt 0.849870 0.000231
vt 0.011916 0.175514
vt 0.281590 0.385929
vt 0.641512 0.174140
vt 0.641003 0.012492
vt 0.695938 0.012286
vt 0.695938 0.174483
vt 0.198038 0.388993
vt 0.428980 0.550449
vt 0.062701 0.385929
vt 0.425790 0.402763
vt 0.496874 0.400354
vt 0.496874 0.553105
vt 0.279875 0.849687
vt 0.208343 0.838983
vt 0.199805 0.846670
vt 0.212932 0.388572
vt 0.429293 0.560943
vt 0.205578 0.396255
vt 0.279947 0.385929
vt 0.496280 0.564218
vt 0.019478 0.027937
vt 0.618998 0.012810
vt 0.013633 0.162680
vt 0.620002 0.174152
s 1
usemtl Brackets
f 1/1/1 2/3/2 3/5/3 4/7/4
f 5/9/5 6/11/6 7/12/7 8/14/8
f 9/18/9 10/20/10 11/22/11 12/24/12
f 13/27/13 14/28/14 15/30/15 16/31/16
f 17/32/17 18/35/18 19/40/19 20/42/20
f 21/43/21 22/46/22 23/48/23 24/50/24
f 25/52/25 26/53/26 27/54/27 28/55/28
f 29/56/29 30/59/30 31/61/31 32/64/32
f 33/67/33 34/68/34 35/69/35 36/70/36
f 37/72/37 38/74/38 39/75/39 40/76/40
f 41/77/41 42/78/42 43/80/43 44/83/44
f 45/85/45 4/8/4 17/33/17
f 3/6/3 15/30/15 18/37/18
f 46/86/46 20/41/20 21/44/21 34/68/34
f 14/29/14 25/52/25 42/79/42 22/45/22 19/38/19
f 47/87/47 32/65/32 1/2/1
f 16/31/16 2/4/2 31/62/31
f 33/67/33 10/21/10 29/57/29 48/88/48
f 26/53/26 13/26/13 30/58/30 9/17/9 5/10/5
f 28/55/28 37/71/37 43/82/43
f 27/54/27 8/16/8 38/73/38
f 46/86/46 45/85/45 17/33/17 20/41/20
f 4/7/4 3/5/3 18/36/18 17/34/17
f 15/30/15 14/28/14 19/39/19 18/37/18
f 22/46/22 21/43/21 20/42/20 19/40/19
f 48/88/48 46/86/46 34/68/34 33/67/33
f 14/29/14 13/26/13 26/53/26 25/52/25
f 30/59/30 29/56/29 10/20/10 9/18/9
f 47/87/47 48/88/48 29/57/29 32/65/32
f 13/27/13 16/31/16 31/62/31 30/60/30
f 2/3/2 1/1/1 32/66/32 31/63/31
f 45/85/45 47/87/47 1/2/1 4/8/4
f 16/31/16 15/30/15 3/6/3 2/4/2
f 33/67/33 36/70/36 11/23/11 10/21/10
f 6/11/6 5/9/5 9/19/9 12/25/12
f 21/44/21 24/51/24 35/69/35 34/68/34
f 23/49/23 22/47/22 42/78/42 41/77/41
f 28/55/28 27/54/27 38/73/38 37/71/37
f 39/75/39 38/74/38 8/15/8 7/13/7
f 44/84/44 43/81/43 37/72/37 40/76/40
f 25/52/25 28/55/28 43/82/43 42/79/42
f 27/54/27 26/53/26 5/10/5 8/16/8
f 46/86/46 48/88/48 47/87/47 45/85/45
usemtl Board
f 49/89/49 50/91/50 51/93/51 52/95/52
f 53/97/53 54/98/54 55/99/55 56/100/56
f 57/101/57 58/104/58 59/107/59 60/109/60
f 61/111/61 62/113/62 63/115/63 64/118/64
f 65/121/65 52/96/52 57/102/57
f 51/94/51 55/99/55 58/106/58
f 66/122/66 64/119/64 49/90/49
f 56/100/56 50/92/50 63/116/63
f 67/123/67 65/121/65 57/102/57 60/110/60
f 52/95/52 51/93/51 58/105/58 57/103/57
f 55/99/55 54/98/54 59/108/59 58/106/58
f 66/122/66 68/124/68 61/112/61 64/119/64
f 53/97/53 56/100/56 63/116/63 62/114/62
f 50/91/50 49/89/49 64/120/64 63/117/63
f 65/121/65 66/122/66 49/90/49 52/96/52
f 56/100/56 55/99/55 51/94/51 50/92/50
f 67/123/67 68/124/68 66/122/66 65/121/65
usemtl Brackets
f 69/125/1 70/127/2 71/129/3 72/131/4
f 73/133/5 74/135/6 75/136/7 76/138/8
f 77/142/9 78/144/10 79/146/11 80/148/69
f 81/151/13 82/152/14 83/154/15 84/155/16
f 85/156/17 86/159/18 87/164/19 88/166/70
f 89/167/21 90/170/22 91/172/23 92/174/24
f 93/176/25 94/177/26 95/178/27 96/179/28
f 97/180/29 98/183/30 99/185/31 100/188/32
f 101/191/33 102/192/34 103/193/35 104/194/36
f 105/196/37 106/198/38 107/199/39 108/200/40
f 109/201/41 110/202/42 111/204/43 112/207/44
f 113/209/45 72/132/4 85/157/17
f 71/130/3 83/154/15 86/161/18
f 114/210/46 88/165/70 89/168/21 102/192/34
f 82/153/14 93/176/25 110/203/42 90/169/22 87/162/19
f 115/211/47 100/189/32 69/126/1
f 84/155/16 70/128/2 99/186/31
f 101/191/33 78/145/10 97/181/29 116/212/48
f 94/177/26 81/150/13 98/182/30 77/141/9 73/134/5
f 96/179/28 105/195/37 111/206/43
f 95/178/27 76/140/8 106/197/38
f 114/210/46 113/209/45 85/157/17 88/165/70
f 72/131/4 71/129/3 86/160/18 85/158/17
f 83/154/15 82/152/14 87/163/19 86/161/18
f 90/170/22 89/167/21 88/166/70 87/164/19
f 116/212/48 114/210/46 102/192/34 101/191/33
f 82/153/14 81/150/13 94/177/26 93/176/25
f 98/183/30 97/180/29 78/144/10 77/142/9
f 115/211/47 116/212/48 97/181/29 100/189/32
f 81/151/13 84/155/16 99/186/31 98/184/30
f 70/127/2 69/125/1 100/190/32 99/187/31
f 113/209/45 115/211/47 69/126/1 72/132/4
f 84/155/16 83/154/15 71/130/3 70/128/2
f 101/191/33 104/194/36 79/147/11 78/145/10
f 74/135/6 73/133/5 77/143/9 80/149/69
f 89/168/21 92/175/24 103/193/35 102/192/34
f 91/173/23 90/171/22 110/202/42 109/201/41
f 96/179/28 95/178/27 106/197/38 105/195/37
f 107/199/39 106/198/38 76/139/8 75/137/7
f 112/208/44 111/205/43 105/196/37 108/200/40
f 93/176/25 96/179/28 111/206/43 110/203/42
f 95/178/27 94/177/26 73/134/5 76/140/8
f 114/210/46 116/212/48 115/211/47 113/209/45
