# Blender 3.1.0
# www.blender.org
mtllib Pillarnobase.mtl
o pillar_sub expo
v 1.762121 6.923976 1.762122
v -1.762121 6.923976 1.762122
v -1.613976 20.264408 -1.613973
v -1.513137 16.293907 -1.513134
v -1.513137 16.293907 1.513140
v -1.613976 20.264408 1.613979
v -1.762121 6.923976 -1.762119
v 1.762121 6.923976 -1.762119
v -1.751106 26.050037 -1.751102
v -1.751106 26.050037 1.751110
v 1.751106 26.050037 1.751110
v 1.751106 26.050037 -1.751102
v 1.613976 20.264408 1.613979
v 1.513137 16.293907 1.513140
v 1.513137 16.293907 -1.513134
v 1.613976 20.264408 -1.613973
v -1.529901 12.259047 1.529903
v 1.529901 12.259047 1.529903
v 1.529901 12.259048 -1.529899
v -1.529901 12.259048 -1.529899
v -1.934637 11.547260 -1.934636
v -1.901594 12.170570 -1.901592
v 1.901594 12.170570 -1.901592
v 1.934637 11.547260 -1.934636
v -1.564259 11.454742 -1.564257
v -1.564259 11.454741 1.564261
v 1.564259 11.454742 -1.564257
v 1.564259 11.454741 1.564261
v 1.640901 21.324585 1.640904
v 1.640901 21.324585 -1.640898
v -2.056503 20.326344 2.056506
v -2.085981 21.235779 2.085984
v -2.085981 21.235779 -2.085978
v -2.056503 20.326344 -2.056500
v -1.640901 21.324585 1.640904
v -1.640901 21.324585 -1.640898
v 2.085981 21.235779 -2.085978
v 2.085981 21.235779 2.085984
v 2.056503 20.326344 2.056506
v 2.056503 20.326344 -2.056500
v 1.901594 12.170570 1.901596
v -1.901594 12.170570 1.901596
v -1.934637 11.547258 1.934639
v 1.934637 11.547258 1.934639
vn -0.3449 -0.8730 -0.3449
vn -0.7070 -0.0152 -0.7070
vn -0.7070 -0.0152 0.7070
vn -0.3449 -0.8730 0.3449
vn -0.5834 0.5651 -0.5834
vn -0.5834 0.5651 0.5834
vn 0.5834 0.5651 0.5834
vn 0.5834 0.5651 -0.5834
vn 0.3449 -0.8730 0.3449
vn 0.7070 -0.0152 0.7070
vn 0.7070 -0.0152 -0.7070
vn 0.3449 -0.8730 -0.3449
vn -0.3864 0.8375 0.3864
vn 0.3864 0.8375 0.3864
vn 0.3864 0.8375 -0.3864
vn -0.3864 0.8375 -0.3864
vn -0.6127 -0.4991 -0.6127
vn -0.5858 0.5600 -0.5858
vn 0.5858 0.5600 -0.5858
vn 0.6127 -0.4991 -0.6127
vn -0.4057 -0.8190 -0.4057
vn -0.5885 -0.5544 -0.5885
vn -0.5885 -0.5544 0.5885
vn -0.4057 -0.8190 0.4057
vn 0.4057 -0.8190 -0.4057
vn 0.5885 -0.5544 -0.5885
vn 0.5885 -0.5544 0.5885
vn 0.4057 -0.8190 0.4057
vn 0.3817 0.8418 0.3817
vn 0.3817 0.8418 -0.3817
vn -0.5822 -0.5676 0.5822
vn -0.6037 0.5206 0.6037
vn -0.6037 0.5206 -0.6037
vn -0.5822 -0.5676 -0.5822
vn -0.3817 0.8418 0.3817
vn -0.3817 0.8418 -0.3817
vn 0.6037 0.5206 -0.6037
vn 0.6037 0.5206 0.6037
vn 0.5822 -0.5676 0.5822
vn 0.5822 -0.5676 -0.5822
vn 0.5858 0.5600 0.5858
vn -0.5858 0.5600 0.5858
vn -0.6127 -0.4991 0.6127
vn 0.6127 -0.4991 0.6127
vt 0.280062 0.236131
vt 0.545737 0.158383
vt 0.161492 0.251608
vt 0.661088 0.158383
vt 0.513920 0.745738
vt 0.059983 0.763105
vt 0.498262 0.612175
vt 0.075542 0.628353
vt 0.180804 0.628909
vt 0.178204 0.774206
vt 0.046803 0.278209
vt 0.507635 0.245122
vt 0.661088 0.273733
vt 0.395213 0.229915
vt 0.545737 0.273733
vt 0.544661 0.275696
vt 0.512113 0.999899
vt 0.065072 0.992382
vt 0.544661 0.159614
vt 0.173530 0.988567
vt 0.660744 0.159614
vt 0.279407 0.987564
vt 0.660744 0.275696
vt 0.385247 0.990979
vt 0.282931 0.768664
vt 0.283759 0.623811
vt 0.388331 0.617473
vt 0.391468 0.762812
vt 0.178399 0.471156
vt 0.281268 0.461750
vt 0.384063 0.453248
vt 0.502485 0.458747
vt 0.068469 0.488421
vt 0.518361 0.410946
vt 0.050153 0.438041
vt 0.515234 0.447433
vt 0.049808 0.472916
vt 0.384685 0.441985
vt 0.382285 0.419494
vt 0.499851 0.393255
vt 0.061497 0.426425
vt 0.174770 0.423596
vt 0.382391 0.404123
vt 0.276890 0.412131
vt 0.285962 0.827359
vt 0.393131 0.821457
vt 0.176874 0.786770
vt 0.179111 0.813720
vt 0.038091 0.821429
vt 0.535487 0.815136
vt 0.537336 0.765435
vt 0.044820 0.775062
vt 0.178408 0.831036
vt 0.059883 0.841866
vt 0.520159 0.828395
vt 0.394188 0.808536
vt 0.286637 0.812491
vt 0.282289 0.783417
vt 0.391275 0.780397
vt 0.281195 0.448864
vt 0.177905 0.456449
vt 0.174694 0.434688
vt 0.277047 0.425213
s 1
usemtl DefaultMaterial
f 3/6/1 4/8/2 5/9/3
f 5/9/3 6/10/4 3/6/1
f 9/16/5 10/19/6 11/21/7
f 11/21/7 12/23/8 9/16/5
f 13/25/9 14/26/10 15/27/11
f 15/27/11 16/28/12 13/25/9
f 6/10/4 5/9/3 14/26/10
f 14/26/10 13/25/9 6/10/4
f 16/28/12 15/27/11 4/7/2
f 4/7/2 3/5/1 16/28/12
f 5/9/3 17/29/13 18/30/14
f 18/30/14 14/26/10 5/9/3
f 15/27/11 19/31/15 20/32/16
f 20/32/16 4/7/2 15/27/11
f 21/34/17 22/36/18 23/38/19
f 23/38/19 24/39/20 21/34/17
f 25/41/21 7/11/22 2/3/23
f 2/3/23 26/42/24 25/41/21
f 14/26/10 18/30/14 19/31/15
f 19/31/15 15/27/11 14/26/10
f 4/8/2 20/33/16 17/29/13
f 17/29/13 5/9/3 4/8/2
f 27/43/25 8/14/26 7/12/22
f 7/12/22 25/40/21 27/43/25
f 26/42/24 2/3/23 1/1/27
f 1/1/27 28/44/28 26/42/24
f 11/22/7 29/45/29 30/46/30
f 30/46/30 12/24/8 11/22/7
f 31/47/31 32/48/32 33/49/33
f 33/49/33 34/52/34 31/47/31
f 10/20/6 35/53/35 29/45/29
f 29/45/29 11/22/7 10/20/6
f 12/24/8 30/46/30 36/55/36
f 36/55/36 9/17/5 12/24/8
f 37/56/37 30/46/30 29/45/29
f 29/45/29 38/57/38 37/56/37
f 39/58/39 13/25/9 16/28/12
f 16/28/12 40/59/40 39/58/39
f 31/47/31 6/10/4 13/25/9
f 13/25/9 39/58/39 31/47/31
f 40/59/40 16/28/12 3/5/1
f 3/5/1 34/51/34 40/59/40
f 9/18/5 36/54/36 35/53/35
f 35/53/35 10/20/6 9/18/5
f 40/59/40 37/56/37 38/57/38
f 38/57/38 39/58/39 40/59/40
f 39/58/39 38/57/38 32/48/32
f 32/48/32 31/47/31 39/58/39
f 34/51/34 33/50/33 37/56/37
f 37/56/37 40/59/40 34/51/34
f 34/52/34 3/6/1 6/10/4
f 6/10/4 31/47/31 34/52/34
f 32/48/32 35/53/35 36/54/36
f 36/54/36 33/49/33 32/48/32
f 33/50/33 36/55/36 30/46/30
f 30/46/30 37/56/37 33/50/33
f 38/57/38 29/45/29 35/53/35
f 35/53/35 32/48/32 38/57/38
f 22/36/18 20/32/16 19/31/15
f 19/31/15 23/38/19 22/36/18
f 24/39/20 27/43/25 25/40/21
f 25/40/21 21/34/17 24/39/20
f 41/60/41 18/30/14 17/29/13
f 17/29/13 42/61/42 41/60/41
f 43/62/43 26/42/24 28/44/28
f 28/44/28 44/63/44 43/62/43
f 28/44/28 1/1/27 8/14/26
f 8/14/26 27/43/25 28/44/28
f 44/63/44 41/60/41 42/61/42
f 42/61/42 43/62/43 44/63/44
f 24/39/20 23/38/19 41/60/41
f 41/60/41 44/63/44 24/39/20
f 43/62/43 42/61/42 22/37/18
f 22/37/18 21/35/17 43/62/43
f 42/61/42 17/29/13 20/33/16
f 20/33/16 22/37/18 42/61/42
f 23/38/19 19/31/15 18/30/14
f 18/30/14 41/60/41 23/38/19
f 21/35/17 25/41/21 26/42/24
f 26/42/24 43/62/43 21/35/17
f 44/63/44 28/44/28 27/43/25
f 27/43/25 24/39/20 44/63/44
f 2/4/23 8/15/26 1/2/27
f 2/4/23 7/13/22 8/15/26
