# Blender 3.1.0
# www.blender.org
mtllib Lid.mtl
o Box_Low.001
v -1.264171 1.784078 -1.087132
v -0.867278 1.784078 -1.087132
v -1.502754 1.780170 0.947782
v -1.502566 1.751313 0.975094
v -1.530519 1.751745 0.948523
v -1.502218 1.778317 -0.988503
v -1.528870 1.751333 -0.988739
v -1.501832 1.751113 -1.015182
v 1.502911 1.779671 -0.987677
v 1.502818 1.751014 -1.016073
v 1.530092 1.751349 -0.989035
v 1.502744 1.779398 0.948132
v 1.530502 1.751734 0.948565
v 1.502294 1.751274 0.975278
v -1.554859 1.879728 0.990254
v -1.578424 1.857119 0.994502
v -1.549363 1.849449 1.014875
v -1.546337 1.873474 -1.038267
v -1.552790 1.848974 -1.071258
v -1.571069 1.848001 -1.045325
v 1.547476 1.882902 -1.053379
v 1.574316 1.853191 -1.052009
v 1.556375 1.863552 -1.077478
v 1.543972 1.852846 0.982331
v 1.542852 1.832011 1.008661
v 1.567173 1.835717 0.987986
v -1.581504 1.783814 1.007450
v -1.554789 1.781676 1.034946
v -1.564117 1.784077 -1.085043
v -1.593451 1.784053 -1.056610
v 1.594570 1.784078 -1.057037
v 1.564336 1.784078 -1.085623
v 1.557712 1.779409 1.037636
v 1.585157 1.779998 1.008258
v -1.581593 1.688174 1.009094
v -1.564708 1.663111 1.014573
v -1.559643 1.687344 1.042244
v -1.590011 1.689518 -1.055536
v -1.563035 1.688409 -1.082581
v -1.563328 1.662052 -1.054928
v 1.590176 1.688922 -1.055391
v 1.564000 1.662465 -1.055517
v 1.563399 1.687786 -1.083194
v 1.591020 1.687858 1.015029
v 1.564091 1.687595 1.045479
v 1.564198 1.663060 1.014506
v -1.504318 1.687665 0.981421
v -1.561480 1.660915 1.011430
v -1.535051 1.688044 0.951771
v -1.504296 1.687547 -1.021564
v -1.535273 1.688131 -0.991538
v -1.560992 1.660676 -1.052296
v 1.504294 1.687537 -1.021562
v 1.561140 1.660529 -1.051746
v 1.535489 1.688342 -0.991444
v 1.504348 1.687758 0.981585
v 1.535378 1.688231 0.951740
v 1.560721 1.661324 1.011569
v -0.794309 1.784080 1.050083
v -0.826874 1.784073 1.077420
v -1.306239 1.784064 1.078622
v -1.336908 1.784064 1.050232
v -1.265248 1.852043 -1.073850
v -1.264343 1.875907 -1.039332
v -0.866266 1.883875 -1.037629
v -0.867253 1.851766 -1.066726
v -0.833029 1.862375 1.073610
v -0.799574 1.863917 1.040708
v -0.856173 1.890518 1.013774
v -1.293678 1.855258 1.071899
v -1.275358 1.890527 1.011193
v -1.331949 1.855624 1.037867
v -0.867275 1.752276 -1.017835
v -0.867279 1.780615 -0.990092
v -1.264170 1.780806 -0.990074
v -1.264170 1.752267 -1.018142
v -1.264185 1.752337 0.976988
v -1.264189 1.780527 0.949605
v -0.867274 1.780930 0.949693
v -0.867273 1.752392 0.977360
v -0.867284 1.688420 -1.085889
v -0.867279 1.659028 -1.055812
v -1.264171 1.658696 -1.055762
v -1.264171 1.688081 -1.086478
v -1.302644 1.687431 1.076816
v -1.336151 1.686920 1.047595
v -1.278585 1.659888 1.016509
v -0.829404 1.687911 1.076655
v -0.852709 1.660182 1.016461
v -0.795616 1.687632 1.046749
v -0.867279 1.658859 -1.053040
v -0.867275 1.688540 -1.024180
v -1.264171 1.688591 -1.024030
v -1.264171 1.658541 -1.052959
v -1.283474 1.660822 1.013017
v -1.264171 1.688754 0.983994
v -0.867277 1.688720 0.983785
v -0.847844 1.660887 1.013010
v -0.852703 1.784075 1.271515
v -0.884452 1.784077 1.300270
v -1.246844 1.784073 1.300737
v -1.278540 1.784073 1.271843
v -1.277234 1.689520 1.270853
v -1.248940 1.660758 1.272219
v -1.246332 1.689237 1.299192
v -0.854490 1.688571 1.270619
v -0.884880 1.689756 1.298571
v -0.882519 1.662428 1.270864
v -0.858432 1.864943 1.266438
v -0.884461 1.874996 1.262160
v -0.885980 1.857116 1.288998
v -1.247561 1.881305 1.265547
v -1.276217 1.868007 1.269072
v -1.245377 1.864089 1.291623
vn 0.0062 -0.4223 0.9064
vn 0.3352 -0.3860 0.8594
vn 0.2404 -0.5567 0.7951
vn 0.0039 -0.4285 0.9035
vn -0.0002 -0.4223 -0.9064
vn -0.3257 -0.3828 -0.8645
vn -0.2346 -0.5612 -0.7937
vn -0.0004 -0.4429 -0.8966
vn 0.9260 0.1225 -0.3570
vn 0.8933 0.2370 0.3818
vn 0.8858 -0.3299 0.3265
vn 0.8735 -0.3507 -0.3377
vn 0.4054 0.0905 -0.9096
vn 0.0020 0.1013 -0.9949
vn 0.0003 0.4988 -0.8667
vn 0.4015 0.4941 -0.7711
vn -0.4085 0.1342 0.9028
vn -0.3902 0.1095 0.9142
vn -0.2884 0.5348 0.7942
vn -0.3078 0.4149 0.8562
vn -0.1281 -0.9918 0.0038
vn -0.1164 -0.9927 -0.0308
vn -0.4956 -0.8010 0.3359
vn -0.4379 -0.8216 -0.3650
vn -0.4060 -0.3267 0.8535
vn -0.2522 -0.5245 0.8132
vn 0.3400 -0.3666 -0.8660
vn 0.0010 -0.3994 -0.9168
vn -0.3445 -0.8748 0.3407
vn -0.3428 -0.8721 -0.3492
vn -0.0001 -0.9208 -0.3900
vn -0.0004 -0.9222 0.3867
vn 0.0002 -0.9442 -0.3295
vn 0.0945 -0.9947 -0.0395
vn 0.4109 -0.8551 0.3163
vn 0.0982 -0.9947 0.0316
vn -0.0006 -0.9479 -0.3185
vn -0.0993 -0.9945 0.0347
vn -0.0016 -0.9526 0.3041
vn -0.0046 -0.8936 -0.4489
vn 0.1124 -0.9936 -0.0073
vn 0.0005 -0.9549 0.2969
vn 0.0010 -0.8892 -0.4574
vn 0.3971 -0.8400 -0.3698
vn -0.3330 -0.3826 0.8618
vn -0.0007 -0.4220 0.9066
vn -0.0003 -0.4267 0.9044
vn -0.2362 -0.5497 0.8013
vn -0.9105 0.1178 0.3964
vn -0.9240 0.1149 -0.3646
vn -0.8828 -0.3269 -0.3372
vn -0.9171 -0.2776 0.2861
vn 0.3321 -0.3806 -0.8630
vn 0.0049 -0.4225 -0.9064
vn 0.0039 -0.4441 -0.8960
vn 0.2400 -0.5609 -0.7924
vn 0.3333 0.8967 -0.2913
vn -0.0019 0.9321 -0.3623
vn 0.0842 0.9895 0.1178
vn 0.3112 0.8988 0.3089
vn -0.0023 0.1046 -0.9945
vn -0.4044 0.1244 -0.9061
vn -0.3513 0.5286 -0.7728
vn -0.0032 0.5319 -0.8468
vn 0.8481 0.4639 -0.2561
vn 0.7584 0.5744 0.3080
vn 0.7824 -0.5219 0.3399
vn 0.8825 0.0374 0.4687
vn 0.8804 0.0399 0.4725
vn 0.8339 -0.3660 0.4130
vn -0.0117 0.9428 -0.3331
vn -0.3390 0.9057 -0.2546
vn -0.3506 0.8637 0.3619
vn -0.1230 0.9819 0.1441
vn 0.8572 -0.3854 0.3415
vn 0.8571 -0.3827 -0.3448
vn 0.8061 -0.5359 -0.2510
vn 0.8065 -0.5373 0.2468
vn -0.0049 -0.3974 -0.9176
vn -0.3440 -0.3628 -0.8660
vn 0.3706 0.2267 0.9007
vn 0.3567 0.1050 0.9283
vn 0.2334 -0.5268 0.8173
vn 0.3629 -0.3454 0.8655
vn -0.8040 0.4578 0.3796
vn -0.8300 0.4836 -0.2779
vn -0.8571 -0.3830 -0.3446
vn -0.8584 -0.3808 0.3438
vn -0.8125 -0.5268 0.2496
vn -0.8097 -0.5307 -0.2506
vn 0.3502 0.0546 0.9351
vn 0.2740 0.4693 0.8395
vn -0.2587 0.4747 0.8413
vn -0.3450 0.0448 0.9375
vn 0.3147 -0.8735 0.3715
vn -0.3209 -0.8691 0.3765
vn -0.2551 0.9166 0.3079
vn 0.2083 0.9285 0.3075
vn 0.2558 0.5645 0.7848
vn 0.2342 0.6043 0.7616
vn -0.3201 -0.3409 0.8839
vn 0.3174 -0.3443 0.8835
vn -0.8855 0.0606 0.4606
vn -0.7840 -0.5204 0.3383
vn -0.8398 -0.3518 0.4136
vn -0.8802 0.0343 0.4735
vn 0.7288 0.5955 0.3380
vn 0.7518 0.5121 0.4154
vn -0.7741 0.5471 0.3186
vn -0.7984 0.4491 0.4012
vn 0.0040 -0.9201 -0.3917
vn 0.0049 -0.9220 0.3873
vn 0.3460 -0.8713 -0.3479
vn 0.3487 -0.8714 0.3451
vt 0.234369 0.392965
vt 0.234369 0.437279
vt 0.261556 0.362582
vt 0.000000 0.359435
vt 0.258196 0.362582
vt 0.665536 0.695064
vt 0.000127 0.356075
vt 0.258196 0.359222
vt 0.662176 0.911905
vt 0.216743 0.359435
vt 0.216871 0.356075
vt 0.665536 0.911760
vt 0.928266 0.000000
vt 0.665536 0.915262
vt 0.220228 0.359435
vt 0.648035 0.694646
vt 0.216743 0.695349
vt 0.928266 0.335914
vt 0.651395 0.691289
vt 0.220228 0.695349
vt 0.216871 0.698709
vt 0.651395 0.694792
vt 0.000000 0.695349
vt 0.261556 0.698496
vt 0.651395 0.911488
vt 0.000127 0.698709
vt 0.258196 0.701856
vt 0.258196 0.698496
vt 0.880612 0.003357
vt 0.032126 0.352715
vt 0.031744 0.356075
vt 0.877252 0.003502
vt 0.525531 0.312083
vt 0.877252 0.000000
vt 0.028405 0.352715
vt 0.262169 0.352715
vt 0.880612 0.234685
vt 0.247416 0.359435
vt 0.244055 0.359435
vt 0.877252 0.234831
vt 0.244055 0.356075
vt 0.262169 0.003360
vt 0.907799 0.000145
vt 0.247416 0.708790
vt 0.904439 0.000000
vt 0.244055 0.712150
vt 0.244055 0.708790
vt 0.907799 0.231474
vt 0.032126 0.003360
vt 0.907799 0.267227
vt 0.904439 0.234831
vt 0.028405 0.003360
vt 0.031744 0.000000
vt 0.904439 0.231328
vt 0.867565 0.003502
vt 0.535218 0.312083
vt 0.867565 0.000000
vt 0.234369 0.359435
vt 0.867565 0.234831
vt 0.234369 0.356075
vt 0.894753 0.000000
vt 0.234369 0.712150
vt 0.234369 0.708790
vt 0.917485 0.267227
vt 0.894753 0.234831
vt 0.894753 0.231328
vt 0.856785 0.003502
vt 0.853424 0.003445
vt 0.493397 0.349764
vt 0.545998 0.312083
vt 0.856785 0.000000
vt 0.496961 0.349560
vt 0.856785 0.234831
vt 0.223588 0.356075
vt 0.223588 0.359435
vt 0.262175 0.349766
vt 0.853424 0.234617
vt 0.220228 0.359230
vt 0.883972 0.000000
vt 0.223588 0.712150
vt 0.262175 0.000000
vt 0.880612 0.000214
vt 0.220228 0.708995
vt 0.223588 0.708790
vt 0.883972 0.231328
vt 0.928266 0.267227
vt 0.883972 0.234831
vt 0.496961 0.000205
vt 0.880612 0.231386
vt 0.493397 0.000001
vt 0.525531 0.347093
vt 0.250776 0.362582
vt 0.492943 0.349347
vt 0.530004 0.341330
vt 0.676316 0.688145
vt 0.247416 0.356075
vt 0.530004 0.348693
vt 0.250776 0.359222
vt 0.672956 0.695064
vt 0.935686 0.000000
vt 0.672956 0.915262
vt 0.266184 0.342840
vt 0.269542 0.346200
vt 0.672956 0.911760
vt 0.676316 0.918406
vt 0.262631 0.349347
vt 0.935686 0.335914
vt 0.658816 0.691289
vt 0.266184 0.006926
vt 0.662176 0.688145
vt 0.262631 0.000419
vt 0.269542 0.003566
vt 0.658816 0.694792
vt 0.534518 0.348625
vt 0.250776 0.698496
vt 0.530004 0.347147
vt 0.250776 0.701856
vt 0.658816 0.911488
vt 0.492943 0.000419
vt 0.534518 0.341330
vt 0.662176 0.918406
vt 0.247416 0.705003
vt 0.917486 0.003723
vt 0.555685 0.334075
vt 0.917486 0.000000
vt 0.576152 0.312083
vt 0.535218 0.341330
vt 0.535218 0.337607
vt 0.244055 0.392965
vt 0.262169 0.319250
vt 0.247416 0.392900
vt 0.262169 0.274805
vt 0.247416 0.437345
vt 0.244055 0.437279
vt 0.545998 0.334075
vt 0.907799 0.000000
vt 0.025086 0.270587
vt 0.907799 0.003723
vt 0.028405 0.266864
vt 0.032126 0.273240
vt 0.566465 0.312083
vt 0.525531 0.341330
vt 0.025086 0.323468
vt 0.032126 0.320816
vt 0.525531 0.337607
vt 0.028405 0.327191
vt 0.928266 0.071124
vt 0.220228 0.430559
vt 0.216743 0.430559
vt 0.216743 0.386245
vt 0.928266 0.026810
vt 0.220228 0.386245
vt 0.258196 0.389392
vt 0.261556 0.389392
vt 0.000000 0.386245
vt 0.000000 0.430559
vt 0.261556 0.433705
vt 0.258196 0.433705
vt 0.223588 0.437279
vt 0.262169 0.271716
vt 0.220228 0.437279
vt 0.262169 0.316030
vt 0.220228 0.392965
vt 0.223588 0.392965
vt 0.586932 0.312083
vt 0.545998 0.341330
vt 0.500299 0.320314
vt 0.545998 0.337607
vt 0.496961 0.324036
vt 0.493400 0.317669
vt 0.566465 0.334075
vt 0.500299 0.267432
vt 0.928266 0.000000
vt 0.493400 0.270077
vt 0.928266 0.003723
vt 0.496961 0.263710
vt 0.262636 0.271716
vt 0.935686 0.071124
vt 0.266184 0.271716
vt 0.935686 0.026810
vt 0.266184 0.316030
vt 0.262636 0.316030
vt 0.492938 0.318202
vt 0.247416 0.387219
vt 0.250776 0.389392
vt 0.250776 0.433705
vt 0.492938 0.269544
vt 0.247416 0.435878
vt 0.555685 0.312083
vt 0.721533 0.736270
vt 0.721533 0.732548
vt 0.721533 0.691868
vt 0.576152 0.334075
vt 0.721533 0.688145
vt 0.586932 0.334075
vt 0.732314 0.688145
vt 0.522193 0.317936
vt 0.735674 0.691523
vt 0.522046 0.314558
vt 0.732314 0.691868
vt 0.525531 0.314213
vt 0.566465 0.312083
vt 0.522193 0.269810
vt 0.732314 0.736270
vt 0.525531 0.273533
vt 0.732314 0.732548
vt 0.735674 0.732893
vt 0.522046 0.273188
vt 0.545998 0.312083
vt 0.711847 0.736270
vt 0.003319 0.272965
vt 0.003720 0.276343
vt 0.711847 0.732548
vt 0.000000 0.276688
vt 0.003720 0.317713
vt 0.566465 0.334075
vt 0.711847 0.688145
vt 0.003319 0.321090
vt 0.000000 0.317368
vt 0.711847 0.691868
s 1
f 76/151/1 8/13/2 50/100/3 93/180/4
f 80/158/5 14/28/6 56/115/7 97/186/8
f 31/61/9 34/66/10 44/85/11 41/79/12
f 32/63/13 2/2/14 66/134/15 23/47/16
f 28/56/17 62/128/18 72/145/19 17/33/20
f 52/106/21 48/93/22 36/69/23 40/76/24
f 62/128/18 28/56/17 37/70/25 86/168/26
f 2/2/14 32/63/13 43/84/27 81/159/28
f 9/17/29 12/23/30 79/156/31 74/149/32
f 98/187/33 58/119/34 46/90/35 89/174/36
f 48/93/22 95/183/37 87/170/38 36/69/23
f 94/182/39 52/106/21 40/76/24 83/162/40
f 54/111/41 91/177/42 82/160/43 42/81/44
f 10/18/45 73/147/46 92/178/47 53/107/48
f 27/55/49 30/59/50 38/73/51 35/67/52
f 4/5/53 77/153/54 96/185/55 47/92/56
f 21/42/57 65/132/58 69/140/59 24/49/60
f 1/1/61 29/58/62 19/39/63 63/129/64
f 34/66/10 31/61/9 22/45/65 26/54/66
f 88/171/67 60/124/68 99/189/69 106/202/70
f 58/119/34 54/111/41 42/81/44 46/90/35
f 64/130/71 18/36/72 15/30/73 71/144/74
f 7/12/75 5/6/76 49/99/77 51/104/78
f 29/58/62 1/1/61 84/164/79 39/75/80
f 33/64/81 59/123/82 90/175/83 45/86/84
f 30/59/50 27/55/49 16/32/85 20/40/86
f 13/25/87 11/22/88 55/113/89 57/118/90
f 94/182/39 83/162/40 82/160/43 91/177/42
f 1/1/61 63/129/64 66/134/15 2/2/14
f 100/191/91 111/213/92 114/220/93 101/192/94
f 87/170/38 89/174/36 108/208/95 104/199/96
f 2/2/14 81/159/28 84/164/79 1/1/61
f 80/158/5 97/186/8 96/185/55 77/153/54
f 98/187/33 89/174/36 87/170/38 95/183/37
f 64/130/71 71/144/74 69/140/59 65/132/58
f 69/140/59 71/144/74 112/215/97 110/212/98
f 76/151/1 93/180/4 92/178/47 73/147/46
f 59/123/82 33/64/81 25/50/99 68/138/100
f 101/192/94 105/200/101 107/206/102 100/191/91
f 61/126/103 85/165/104 103/195/105 102/193/106
f 60/124/68 67/135/107 109/209/108 99/189/69
f 70/141/109 61/126/103 102/193/106 113/216/110
f 78/155/111 75/150/112 74/149/32 79/156/31
f 3/3/113 4/5/53 5/8/76
f 6/9/114 7/12/75 8/14/2
f 9/16/29 10/19/45 11/22/88
f 12/24/30 13/27/87 14/28/6
f 15/30/73 16/31/85 17/35/20
f 18/38/72 19/39/63 20/41/86
f 21/44/57 22/46/65 23/47/16
f 24/49/60 25/52/99 26/53/66
f 35/67/52 36/68/23 37/71/25
f 38/74/51 39/75/80 40/78/24
f 41/80/12 42/83/44 43/84/27
f 44/85/11 45/87/84 46/89/35
f 47/91/56 48/94/22 49/97/77
f 50/102/3 51/103/78 52/106/21
f 53/109/48 54/111/41 55/112/89
f 56/114/7 57/116/90 58/120/34
f 67/137/107 68/139/100 69/140/59
f 70/143/109 71/144/74 72/146/19
f 85/167/104 86/169/26 87/170/38
f 88/172/67 89/174/36 90/176/83
f 103/196/105 104/198/96 105/200/101
f 106/204/70 107/206/102 108/207/95
f 109/211/108 110/212/98 111/214/92
f 112/215/97 113/218/110 114/219/93
f 15/29/73 18/37/72 20/40/86 16/32/85
f 21/43/57 24/48/60 26/54/66 22/45/65
f 30/60/50 20/41/86 19/39/63 29/58/62
f 22/46/65 31/62/9 32/63/13 23/47/16
f 25/51/99 33/65/81 34/66/10 26/54/66
f 28/57/17 17/34/20 16/32/85 27/55/49
f 5/7/76 7/11/75 6/10/114 3/4/113
f 11/21/88 13/26/87 12/23/30 9/17/29
f 55/113/89 11/22/88 10/19/45 53/108/48
f 7/12/75 51/104/78 50/101/3 8/14/2
f 49/98/77 5/8/76 4/5/53 47/92/56
f 13/27/87 57/117/90 56/115/7 14/28/6
f 35/67/52 38/73/51 40/77/24 36/68/23
f 41/79/12 44/85/11 46/89/35 42/82/44
f 48/95/22 52/105/21 51/104/78 49/99/77
f 54/110/41 58/121/34 57/118/90 55/113/89
f 33/65/81 45/87/84 44/85/11 34/66/10
f 43/84/27 32/63/13 31/62/9 41/80/12
f 29/58/62 39/75/80 38/74/51 30/60/50
f 37/71/25 28/57/17 27/55/49 35/67/52
f 82/161/43 83/163/40 84/164/79 81/159/28
f 88/172/67 106/203/70 108/208/95 89/174/36
f 62/128/18 86/168/26 85/166/104 61/127/103
f 90/175/83 59/123/82 60/125/68 88/173/67
f 96/185/55 97/186/8 98/188/33 95/184/37
f 92/179/47 93/181/4 94/182/39 91/177/42
f 78/154/111 79/157/31 80/158/5 77/153/54
f 74/149/32 75/150/112 76/152/1 73/148/46
f 59/123/82 68/138/100 67/136/107 60/125/68
f 72/145/19 62/128/18 61/127/103 70/142/109
f 64/131/71 65/133/58 66/134/15 63/129/64
f 65/133/58 21/44/57 23/47/16 66/134/15
f 42/83/44 82/161/43 81/159/28 43/84/27
f 18/38/72 64/131/71 63/129/64 19/39/63
f 83/163/40 40/78/24 39/75/80 84/164/79
f 71/144/74 15/30/73 17/35/20 72/146/19
f 36/69/23 87/170/38 86/169/26 37/72/25
f 24/49/60 69/140/59 68/139/100 25/52/99
f 89/174/36 46/90/35 45/88/84 90/176/83
f 73/148/46 10/20/45 9/17/29 74/149/32
f 14/28/6 80/158/5 79/157/31 12/24/30
f 75/150/112 6/10/114 8/15/2 76/152/1
f 52/106/21 94/182/39 93/181/4 50/102/3
f 91/177/42 54/111/41 53/109/48 92/179/47
f 77/153/54 4/5/53 3/3/113 78/154/111
f 95/184/37 48/96/22 47/92/56 96/185/55
f 58/122/34 98/188/33 97/186/8 56/115/7
f 102/194/106 103/196/105 105/200/101 101/192/94
f 104/199/96 108/208/95 107/205/102 105/201/101
f 106/204/70 99/190/69 100/191/91 107/206/102
f 99/190/69 109/210/108 111/213/92 100/191/91
f 110/212/98 112/215/97 114/219/93 111/214/92
f 113/217/110 102/194/106 101/192/94 114/220/93
f 103/197/105 85/167/104 87/170/38 104/199/96
f 112/215/97 71/144/74 70/143/109 113/218/110
f 69/140/59 110/212/98 109/211/108 67/137/107
f 75/150/112 78/155/111 3/4/113 6/10/114
