# Blender 3.1.0
# www.blender.org
mtllib pipe_straight.mtl
g Pipes_low_Cylinder.009
v 5.139196 -0.046630 -1.009869
v -0.158947 -0.046299 -1.009721
v 5.139262 0.426420 -0.882600
v -0.159533 0.426691 -0.882073
v 5.142871 0.770055 -0.537253
v -0.163040 0.769678 -0.537064
v 5.139304 0.898949 -0.064247
v -0.158392 0.899465 -0.064296
v 5.139252 0.770947 0.408628
v -0.162392 0.770746 0.408180
v 5.139967 0.427624 0.756224
v -0.160439 0.428005 0.755543
v 5.141101 -0.046705 0.913166
v -0.161942 -0.046641 0.912140
v 5.139991 -0.521223 0.756227
v -0.162102 -0.519109 0.753217
v 5.142793 -0.863525 0.409019
v -0.161347 -0.862482 0.406246
v 5.139303 -0.992401 -0.064258
v -0.158564 -0.992791 -0.064199
v 5.139146 -0.865215 -0.537368
v -0.159570 -0.864619 -0.537545
v 5.142969 -0.519777 -0.880910
v -0.162467 -0.518929 -0.881601
vn 0.6518 -0.0011 -0.7584
vn -0.6516 -0.0014 -0.7586
vn -0.6523 0.3805 -0.6556
vn 0.6521 0.3810 -0.6554
vn -0.6560 0.6528 -0.3787
vn 0.6554 0.6537 -0.3783
vn -0.6501 0.7598 -0.0012
vn 0.6517 0.7585 -0.0012
vn -0.6559 0.6543 0.3764
vn 0.6537 0.6559 0.3774
vn -0.6573 0.3976 0.6402
vn 0.6579 0.3971 0.6399
vn -0.6429 -0.0015 0.7659
vn 0.6433 -0.0009 0.7656
vn -0.6593 -0.3976 0.6381
vn 0.6567 -0.3985 0.6402
vn -0.6552 -0.6542 0.3777
vn 0.6557 -0.6538 0.3777
vn -0.6511 -0.7590 0.0015
vn 0.6522 -0.7581 0.0022
vn -0.6527 -0.6549 -0.3810
vn 0.6521 -0.6555 -0.3810
vn -0.6550 -0.3781 -0.6542
vn 0.6558 -0.3777 -0.6537
vt 0.000602 0.438739
vt 0.000658 0.969911
vt 0.622250 0.963445
vt 0.478337 0.438879
vt 0.478393 0.969691
vt 0.971400 0.143284
vt 0.000586 0.482911
vt 0.584035 0.985600
vt 0.478380 0.483055
vt 0.993532 0.105053
vt 0.000252 0.526840
vt 0.540104 0.985611
vt 0.478688 0.526922
vt 0.993532 0.061185
vt 0.000567 0.571047
vt 0.501664 0.963779
vt 0.478262 0.571129
vt 0.971783 0.022696
vt 0.000562 0.615221
vt 0.479568 0.925528
vt 0.478613 0.615285
vt 0.933511 0.000669
vt 0.000490 0.659275
vt 0.479173 0.881476
vt 0.478430 0.659287
vt 0.889511 0.000242
vt 0.000382 0.704325
vt 0.499296 0.841169
vt 0.478559 0.704355
vt 0.849203 0.020402
vt 0.000481 0.749392
vt 0.539501 0.820808
vt 0.478573 0.749304
vt 0.829092 0.060600
vt 0.000242 0.793356
vt 0.583466 0.820998
vt 0.478519 0.793320
vt 0.829190 0.104617
vt 0.000580 0.837586
vt 0.621922 0.842848
vt 0.478291 0.837338
vt 0.850762 0.142987
vt 0.000616 0.881761
vt 0.644086 0.881060
vt 0.478403 0.881557
vt 0.889049 0.165109
vt 0.000295 0.925691
vt 0.644086 0.924991
vt 0.478688 0.925535
vt 0.933028 0.165134
s 1
f 1/1/1 2/4/2 4/9/3 3/7/4
f 3/7/4 4/9/3 6/13/5 5/11/6
f 5/11/6 6/13/5 8/17/7 7/15/8
f 7/15/8 8/17/7 10/21/9 9/19/10
f 9/19/10 10/21/9 12/25/11 11/23/12
f 11/23/12 12/25/11 14/29/13 13/27/14
f 13/27/14 14/29/13 16/33/15 15/31/16
f 15/31/16 16/33/15 18/37/17 17/35/18
f 17/35/18 18/37/17 20/41/19 19/39/20
f 19/39/20 20/41/19 22/45/21 21/43/22
f 21/43/22 22/45/21 24/49/23 23/47/24
f 23/47/24 24/49/23 2/5/2 1/2/1
f 4/10/3 2/6/2 24/50/23 22/46/21 20/42/19 18/38/17 16/34/15 14/30/13 12/26/11 10/22/9 8/18/7 6/14/5
f 1/3/1 3/8/4 5/12/6 7/16/8 9/20/10 11/24/12 13/28/14 15/32/16 17/36/18 19/40/20 21/44/22 23/48/24
