# Blender 3.1.0
# www.blender.org
mtllib pipe_90.mtl
g Pipes_low.001_Cylinder.012
v -2.514411 -0.000025 -1.196482
v -2.559613 0.591206 -1.045717
v -2.745168 -0.000015 -1.288208
v -2.559336 -0.591170 -1.045392
v -2.402801 -0.000023 -1.186404
v -2.402444 0.586421 -1.034862
v -2.402358 -0.585760 -1.035479
v -1.972611 -0.000020 -1.176189
v -1.974181 0.581796 -1.025954
v -1.873415 0.000020 -1.098439
v -1.973829 -0.580534 -1.026895
v -1.873591 -0.544554 -0.957997
v -1.973571 -1.003697 -0.619718
v -1.873584 -0.937153 -0.578731
v -1.972958 -1.156821 -0.064342
v -2.402061 -1.012630 -0.623477
v -2.402008 -1.166363 -0.064350
v -2.682641 -1.020975 -0.630041
v -2.850753 -1.165912 -0.065539
v -3.041503 -1.019320 -0.775209
v -2.823970 -0.590230 -1.150508
v -3.335152 -1.166303 -0.266320
v -3.336337 -1.019017 -1.001484
v -3.030241 -0.590243 -1.308130
v -3.751798 -1.166282 -0.586087
v -3.562681 -1.019191 -1.296114
v -3.187099 -0.590071 -1.512958
v -4.071271 -1.166349 -1.002663
v -3.704802 -1.018944 -1.639601
v -3.286467 -0.590345 -1.751922
v -4.272389 -1.166340 -1.487497
v -3.755566 -1.015612 -2.006483
v -3.324063 -0.588168 -2.005545
v -4.341283 -1.166565 -2.008076
v -3.762597 -1.002408 -2.437778
v -3.802358 -0.936245 -2.536570
v -3.339108 -0.581420 -2.436814
v -4.341944 -1.156895 -2.437419
v -4.341909 -1.079533 -2.536339
v -4.918565 -1.000578 -2.437031
v -4.880145 -0.932079 -2.537294
v -5.342760 -0.577081 -2.437535
v -4.920182 -1.003909 -2.010270
v -5.341128 -0.577707 -2.011760
v -4.818670 -0.991871 -1.346422
v -5.209398 -0.552579 -1.243557
v -4.548258 -0.980874 -0.726360
v -4.911316 -0.549886 -0.520556
v -4.143392 -0.974613 -0.196263
v -4.436114 -0.557502 0.110060
v -3.610388 -0.985432 0.215427
v -3.832544 -0.555739 0.580723
v -3.014248 -0.990806 0.480205
v -3.090960 -0.490406 0.751610
v -2.402007 -1.008930 0.493319
v -2.402022 -0.583415 0.903155
v -1.974765 -1.001558 0.487075
v -1.873092 -0.933955 0.447102
v -1.971938 -0.578782 0.894334
v -1.871218 -0.540256 0.824222
v -1.969470 -0.000018 1.077858
v -1.859544 -0.000039 0.978940
v -1.973537 0.578595 0.893957
v -2.401247 -0.000519 1.087281
v -2.396502 0.572451 0.889074
v -3.178052 -0.001593 0.981241
v -3.139311 0.549977 0.840633
v -3.919564 -0.000685 0.745915
v -3.821743 0.551857 0.580813
v -4.577565 -0.000602 0.239740
v -4.432769 0.549840 0.096299
v -5.083537 -0.000427 -0.418149
v -4.914201 0.558501 -0.521649
v -5.388051 -0.002539 -1.183130
v -5.200861 0.552487 -1.229101
v -5.505904 -0.003956 -2.015733
v -5.330548 0.572886 -2.019632
v -5.534613 0.000599 -2.440045
v -5.435115 0.000058 -2.551592
v -5.342271 0.578249 -2.436446
v -5.273218 0.537538 -2.538825
v -4.920551 0.999561 -2.437829
v -4.880758 0.931712 -2.537476
v -4.343125 1.156291 -2.435433
v -4.921256 1.003106 -2.010282
v -4.344325 1.217731 -2.012808
v -4.815971 0.985080 -1.340595
v -4.274925 1.119537 -1.490449
v -4.559844 0.988868 -0.722517
v -4.075777 1.109077 -1.000545
v -4.146846 0.979952 -0.188089
v -3.750348 1.118335 -0.582521
v -3.622416 0.996006 0.230906
v -3.331165 1.139291 -0.266351
v -3.014389 0.990541 0.479914
v -2.849324 1.158746 -0.064305
v -2.401984 1.008691 0.492833
v -2.386286 1.189976 -0.070724
v -1.976663 0.999960 0.487708
v -1.873585 0.933084 0.447795
v -1.976224 1.156003 -0.064213
v -1.873891 1.078919 -0.064367
v -1.973890 1.003200 -0.618612
v -1.874471 0.938461 -0.578743
v -2.402068 1.012585 -0.623214
v -2.681954 1.017804 -0.629058
v -3.041598 1.008049 -0.773074
v -2.824353 0.590868 -1.150919
v -3.335382 1.004012 -1.001475
v -3.030453 0.589624 -1.307699
v -3.563594 0.994821 -1.295181
v -3.187662 0.589991 -1.512896
v -3.706911 1.002041 -1.641515
v -3.286308 0.590121 -1.751835
v -3.755598 1.012557 -2.007499
v -3.323708 0.587732 -2.005437
v -3.762156 1.002394 -2.435930
v -3.801811 0.935958 -2.536352
v -3.339644 0.580627 -2.436701
v -3.405293 0.540417 -2.535892
v -3.183161 -0.000048 -2.436133
v -3.259946 -0.000022 -2.535842
v -3.165993 -0.000044 -2.004804
v -3.133681 -0.000054 -1.793038
v -3.050451 -0.000074 -1.592412
v -2.918278 -0.000082 -1.419869
v -3.405905 -0.541035 -2.536781
v -4.341965 1.079022 -2.536643
v -1.873309 0.543063 -0.958153
v -1.872821 0.539854 0.825140
v -5.272779 -0.538348 -2.538821
v -1.873676 -1.079131 -0.064377
vn 0.1879 0.5147 -0.8365
vn 0.0437 0.4906 -0.8703
vn 0.0525 0.0002 -0.9986
vn 0.2260 -0.0001 -0.9741
vn 0.4917 -0.0000 -0.8708
vn 0.4173 0.5191 -0.7459
vn 0.1914 -0.5125 -0.8371
vn 0.4227 -0.5127 -0.7473
vn 0.0442 -0.4892 -0.8710
vn 0.3195 0.4635 -0.8265
vn 0.3218 0.0004 -0.9468
vn 0.3206 -0.4611 -0.8274
vn 0.8688 0.2412 -0.4324
vn 0.8699 0.0005 -0.4932
vn 0.8694 -0.2418 -0.4309
vn 0.8686 -0.4256 -0.2538
vn 0.3199 -0.8138 -0.4851
vn 0.0274 -0.8618 -0.5064
vn 0.8683 -0.4961 0.0006
vn 0.3201 -0.9474 0.0030
vn 0.0092 -0.9999 0.0097
vn 0.1034 -0.8830 -0.4579
vn -0.0156 -0.9984 0.0546
vn 0.2332 -0.8815 -0.4106
vn -0.0345 -0.9983 0.0476
vn 0.3347 -0.8807 -0.3350
vn 0.6068 -0.5123 -0.6078
vn -0.0467 -0.9979 0.0447
vn 0.4101 -0.8808 -0.2368
vn 0.7440 -0.5118 -0.4296
vn -0.0502 -0.9981 0.0350
vn 0.4577 -0.8799 -0.1273
vn 0.8277 -0.5115 -0.2308
vn -0.0450 -0.9988 0.0194
vn 0.4844 -0.8733 -0.0519
vn 0.8588 -0.5054 -0.0840
vn -0.0233 -0.9997 -0.0057
vn 0.4706 -0.8200 -0.3260
vn 0.8171 -0.4746 -0.3273
vn -0.0047 -0.9471 -0.3208
vn -0.0000 -0.4938 -0.8696
vn 0.2464 -0.4280 -0.8695
vn 0.4295 -0.2462 -0.8689
vn -0.4770 -0.8205 -0.3151
vn -0.2462 -0.4260 -0.8706
vn -0.5192 -0.8535 0.0444
vn -0.8127 -0.4926 -0.3113
vn -0.4098 -0.2561 -0.8755
vn -0.8579 -0.5075 0.0806
vn -0.5189 -0.8396 0.1608
vn -0.8290 -0.5053 0.2395
vn -0.4700 -0.8377 0.2782
vn -0.7417 -0.5183 0.4258
vn -0.3877 -0.8399 0.3799
vn -0.6058 -0.5230 0.5996
vn -0.2627 -0.8269 0.4972
vn -0.3848 -0.5094 0.7697
vn -0.1433 -0.7986 0.5846
vn -0.1990 -0.4814 0.8536
vn -0.0335 -0.8398 0.5419
vn -0.0725 -0.5003 0.8628
vn 0.3195 -0.8134 0.4861
vn 0.3304 -0.4824 0.8113
vn 0.8764 -0.2481 0.4128
vn 0.8694 -0.4244 0.2531
vn 0.8816 0.0007 0.4720
vn 0.3335 0.0045 0.9427
vn -0.0680 -0.0167 0.9975
vn 0.8746 0.2501 0.4154
vn 0.3181 0.4855 0.8143
vn -0.0380 0.4975 0.8666
vn -0.2211 -0.0423 0.9743
vn -0.1942 0.4785 0.8563
vn -0.4228 0.4969 0.7578
vn -0.4602 -0.0191 0.8876
vn -0.6088 0.5132 0.6050
vn -0.7095 0.0059 0.7046
vn -0.7430 0.5149 0.4275
vn -0.8681 0.0011 0.4964
vn -0.8313 0.5043 0.2337
vn -0.9637 0.0018 0.2669
vn -0.8572 0.5077 0.0865
vn -0.9951 0.0038 0.0988
vn -0.8147 0.4942 -0.3033
vn -0.9522 0.0040 -0.3056
vn -0.4754 0.0001 -0.8798
vn -0.4105 0.2547 -0.8756
vn -0.4881 0.8095 -0.3263
vn -0.2454 0.4270 -0.8703
vn -0.5321 0.8450 0.0530
vn -0.0047 0.9383 -0.3458
vn 0.0012 0.4970 -0.8678
vn -0.0155 0.9998 0.0157
vn -0.0242 0.9973 0.0687
vn -0.5068 0.8457 0.1672
vn -0.0304 0.9994 0.0193
vn -0.4443 0.8574 0.2598
vn -0.0406 0.9991 0.0126
vn -0.3762 0.8524 0.3632
vn -0.0404 0.9990 0.0187
vn -0.2764 0.8454 0.4570
vn -0.0380 0.9983 0.0440
vn -0.1283 0.8299 0.5430
vn -0.0131 0.8438 0.5364
vn 0.0066 1.0000 0.0023
vn 0.3168 0.8091 0.4950
vn 0.3279 0.9447 0.0045
vn 0.8664 0.4293 0.2552
vn 0.8643 0.5029 0.0015
vn 0.8656 0.4308 -0.2552
vn 0.3245 0.8101 -0.4883
vn 0.0215 0.8566 -0.5156
vn 0.0758 0.8834 -0.4624
vn 0.2062 0.8911 -0.4042
vn 0.5996 0.5209 -0.6076
vn 0.3003 0.8962 -0.3266
vn 0.7375 0.5237 -0.4265
vn 0.3782 0.8993 -0.2198
vn 0.8246 0.5204 -0.2219
vn 0.4521 0.8888 -0.0757
vn 0.8576 0.5083 -0.0786
vn 0.4989 0.8662 -0.0275
vn 0.8171 0.4755 -0.3260
vn 0.4783 0.8117 -0.3352
vn 0.2479 0.4312 -0.8675
vn 0.4311 0.2471 -0.8678
vn 0.9452 0.0003 -0.3264
vn 0.4978 0.0003 -0.8673
vn 0.9954 -0.0000 -0.0959
vn 0.9633 -0.0000 -0.2684
vn 0.8662 0.0003 -0.4996
vn 0.7060 0.0002 -0.7082
vt 0.030162 0.303051
vt 0.681876 0.274294
vt 0.100639 0.308917
vt 0.031841 0.275131
vt 0.677783 0.245819
vt 0.610150 0.286401
vt 0.028405 0.315748
vt 0.684785 0.287155
vt 0.096869 0.326470
vt 0.615609 0.303948
vt 0.021799 0.366090
vt 0.695866 0.338161
vt 0.087512 0.372561
vt 0.022594 0.380209
vt 0.696239 0.353290
vt 0.738476 0.819555
vt 0.629106 0.350429
vt 0.632180 0.364312
vt 0.694717 0.845182
vt 0.570225 0.368688
vt 0.574351 0.381543
vt 0.670035 0.887768
vt 0.516630 0.388099
vt 0.554393 0.327422
vt 0.502051 0.350136
vt 0.543013 0.300646
vt 0.485952 0.313282
vt 0.536435 0.261051
vt 0.605357 0.252614
vt 0.478123 0.268462
vt 0.532925 0.222406
vt 0.603957 0.221360
vt 0.475110 0.223584
vt 0.535048 0.183454
vt 0.604622 0.190194
vt 0.475909 0.178366
vt 0.541557 0.144949
vt 0.609251 0.159572
vt 0.482769 0.132047
vt 0.552933 0.107572
vt 0.616483 0.130632
vt 0.495924 0.084771
vt 0.567438 0.064122
vt 0.571612 0.050949
vt 0.789409 0.629897
vt 0.628700 0.083936
vt 0.508669 0.044129
vt 0.512640 0.031430
vt 0.832982 0.655102
vt 0.452509 0.027861
vt 0.455236 0.015613
vt 0.857959 0.698787
vt 0.396474 0.017439
vt 0.443350 0.067030
vt 0.392316 0.056508
vt 0.433162 0.122843
vt 0.387157 0.118309
vt 0.429201 0.175060
vt 0.386499 0.173807
vt 0.428841 0.224203
vt 0.387467 0.226132
vt 0.431522 0.273402
vt 0.389813 0.275324
vt 0.437042 0.321992
vt 0.394559 0.327797
vt 0.453841 0.368371
vt 0.406883 0.381427
vt 0.465182 0.405060
vt 0.468702 0.417179
vt 0.695645 0.976653
vt 0.413310 0.418379
vt 0.415617 0.430161
vt 0.739100 0.999636
vt 0.359056 0.423554
vt 0.359706 0.438254
vt 0.789781 0.999758
vt 0.305014 0.423128
vt 0.358143 0.387225
vt 0.308789 0.386260
vt 0.355405 0.328684
vt 0.315332 0.329679
vt 0.352515 0.277729
vt 0.315695 0.280127
vt 0.350624 0.227142
vt 0.312791 0.229382
vt 0.347330 0.175510
vt 0.308323 0.177728
vt 0.344578 0.119849
vt 0.301817 0.124000
vt 0.341141 0.053894
vt 0.289900 0.061606
vt 0.338620 0.016179
vt 0.337745 0.000242
vt 0.834074 0.793670
vt 0.281539 0.024222
vt 0.278506 0.011235
vt 0.789483 0.817648
vt 0.227777 0.041201
vt 0.223375 0.029224
vt 0.739327 0.817826
vt 0.175182 0.063833
vt 0.241212 0.078145
vt 0.192458 0.100486
vt 0.257485 0.132542
vt 0.210019 0.145533
vt 0.266849 0.183085
vt 0.220521 0.190843
vt 0.272078 0.232367
vt 0.226283 0.235676
vt 0.274070 0.280819
vt 0.227479 0.280398
vt 0.272533 0.329425
vt 0.224500 0.325372
vt 0.260458 0.376964
vt 0.210296 0.363809
vt 0.252984 0.414219
vt 0.250406 0.426538
vt 0.857577 0.930608
vt 0.200809 0.401152
vt 0.197454 0.413637
vt 0.857577 0.882591
vt 0.146374 0.385864
vt 0.143303 0.398609
vt 0.832694 0.841451
vt 0.158283 0.344495
vt 0.167228 0.317447
vt 0.170122 0.277998
vt 0.102432 0.275654
vt 0.169694 0.239602
vt 0.101895 0.245047
vt 0.163662 0.201592
vt 0.098121 0.214579
vt 0.153734 0.164177
vt 0.090720 0.185303
vt 0.139223 0.129198
vt 0.080859 0.158178
vt 0.120561 0.089079
vt 0.114965 0.076421
vt 0.670168 0.749399
vt 0.064140 0.114471
vt 0.059234 0.101999
vt 0.670035 0.698898
vt 0.002084 0.133511
vt 0.695735 0.097072
vt 0.000242 0.119779
vt 0.696239 0.082481
vt 0.695166 0.655137
vt 0.016478 0.179709
vt 0.684863 0.146549
vt 0.023124 0.202772
vt 0.680156 0.170779
vt 0.028222 0.226485
vt 0.677249 0.195677
vt 0.031049 0.250661
vt 0.676366 0.220754
vt 0.632465 0.069871
vt 0.738932 0.629888
vt 0.170062 0.052236
vt 0.695547 0.792926
vt 0.085220 0.386437
vt 0.789035 0.818311
vt 0.303811 0.434898
vt 0.832794 0.973043
vt 0.398170 0.004272
vt 0.857959 0.748926
vt 0.520821 0.400228
vt 0.670424 0.935881
s 1
f 2/3/1 6/9/2 5/7/3 1/1/4
f 1/1/4 3/4/5 108/128/6 2/3/1
f 1/2/4 4/6/7 21/29/8 3/5/5
f 1/2/4 5/8/3 7/10/9 4/6/7
f 6/9/2 9/13/10 8/11/11 5/7/3
f 5/8/3 8/12/11 11/17/12 7/10/9
f 9/13/10 129/160/13 10/14/14 8/11/11
f 12/18/15 11/17/12 8/12/11 10/15/14
f 14/21/16 13/20/17 11/17/12 12/18/15
f 7/10/9 11/17/12 13/20/17 16/24/18
f 132/166/19 15/23/20 13/20/17 14/21/16
f 16/24/18 13/20/17 15/23/20 17/25/21
f 4/6/7 7/10/9 16/24/18 18/26/22
f 18/26/22 16/24/18 17/25/21 19/27/23
f 4/6/7 18/26/22 20/28/24 21/29/8
f 18/26/22 19/27/23 22/30/25 20/28/24
f 21/29/8 20/28/24 23/31/26 24/32/27
f 20/28/24 22/30/25 25/33/28 23/31/26
f 24/32/27 23/31/26 26/34/29 27/35/30
f 23/31/26 25/33/28 28/36/31 26/34/29
f 27/35/30 26/34/29 29/37/32 30/38/33
f 26/34/29 28/36/31 31/39/34 29/37/32
f 30/38/33 29/37/32 32/40/35 33/41/36
f 29/37/32 31/39/34 34/42/37 32/40/35
f 32/40/35 35/43/38 37/46/39 33/41/36
f 34/42/37 38/47/40 35/43/38 32/40/35
f 38/47/40 39/48/41 36/44/42 35/43/38
f 35/43/38 36/44/42 127/156/43 37/46/39
f 40/50/44 41/51/45 39/48/41 38/47/40
f 43/54/46 40/50/44 38/47/40 34/42/37
f 42/53/47 131/164/48 41/51/45 40/50/44
f 44/55/49 42/53/47 40/50/44 43/54/46
f 31/39/34 45/56/50 43/54/46 34/42/37
f 45/56/50 46/57/51 44/55/49 43/54/46
f 28/36/31 47/58/52 45/56/50 31/39/34
f 47/58/52 48/59/53 46/57/51 45/56/50
f 25/33/28 49/60/54 47/58/52 28/36/31
f 49/60/54 50/61/55 48/59/53 47/58/52
f 22/30/25 51/62/56 49/60/54 25/33/28
f 51/62/56 52/63/57 50/61/55 49/60/54
f 19/27/23 53/64/58 51/62/56 22/30/25
f 53/64/58 54/65/59 52/63/57 51/62/56
f 19/27/23 17/25/21 55/66/60 53/64/58
f 53/64/58 55/66/60 56/67/61 54/65/59
f 17/25/21 15/23/20 57/68/62 55/66/60
f 55/66/60 57/68/62 59/71/63 56/67/61
f 60/72/64 59/71/63 57/68/62 58/69/65
f 58/69/65 57/68/62 15/23/20 132/166/19
f 62/75/66 61/74/67 59/71/63 60/72/64
f 56/67/61 59/71/63 61/74/67 64/78/68
f 61/74/67 62/75/66 130/162/69 63/77/70
f 64/78/68 61/74/67 63/77/70 65/79/71
f 66/80/72 64/78/68 65/79/71 67/81/73
f 54/65/59 56/67/61 64/78/68 66/80/72
f 67/81/73 69/83/74 68/82/75 66/80/72
f 54/65/59 66/80/72 68/82/75 52/63/57
f 69/83/74 71/85/76 70/84/77 68/82/75
f 52/63/57 68/82/75 70/84/77 50/61/55
f 71/85/76 73/87/78 72/86/79 70/84/77
f 50/61/55 70/84/77 72/86/79 48/59/53
f 73/87/78 75/89/80 74/88/81 72/86/79
f 48/59/53 72/86/79 74/88/81 46/57/51
f 75/89/80 77/91/82 76/90/83 74/88/81
f 46/57/51 74/88/81 76/90/83 44/55/49
f 77/91/82 80/95/84 78/92/85 76/90/83
f 76/90/83 78/92/85 42/53/47 44/55/49
f 78/92/85 79/93/86 131/164/48 42/53/47
f 79/93/86 78/92/85 80/95/84 81/96/87
f 81/96/87 80/95/84 82/98/88 83/99/89
f 85/102/90 82/98/88 80/95/84 77/91/82
f 83/99/89 82/98/88 84/101/91 128/158/92
f 86/103/93 84/101/91 82/98/88 85/102/90
f 88/105/94 86/103/93 85/102/90 87/104/95
f 87/104/95 85/102/90 77/91/82 75/89/80
f 90/107/96 88/105/94 87/104/95 89/106/97
f 89/106/97 87/104/95 75/89/80 73/87/78
f 92/109/98 90/107/96 89/106/97 91/108/99
f 91/108/99 89/106/97 73/87/78 71/85/76
f 94/111/100 92/109/98 91/108/99 93/110/101
f 93/110/101 91/108/99 71/85/76 69/83/74
f 96/113/102 94/111/100 93/110/101 95/112/103
f 95/112/103 93/110/101 69/83/74 67/81/73
f 95/112/103 97/114/104 98/115/105 96/113/102
f 67/81/73 65/79/71 97/114/104 95/112/103
f 97/114/104 99/116/106 101/119/107 98/115/105
f 65/79/71 63/77/70 99/116/106 97/114/104
f 63/77/70 130/162/69 100/117/108 99/116/106
f 99/116/106 100/117/108 102/120/109 101/119/107
f 101/119/107 102/120/109 104/123/110 103/122/111
f 98/115/105 101/119/107 103/122/111 105/125/112
f 103/122/111 104/123/110 129/160/13 9/13/10
f 105/125/112 103/122/111 9/13/10 6/9/2
f 106/126/113 105/125/112 6/9/2 2/3/1
f 96/113/102 98/115/105 105/125/112 106/126/113
f 2/3/1 108/128/6 107/127/114 106/126/113
f 106/126/113 107/127/114 94/111/100 96/113/102
f 108/128/6 110/130/115 109/129/116 107/127/114
f 107/127/114 109/129/116 92/109/98 94/111/100
f 110/130/115 112/132/117 111/131/118 109/129/116
f 109/129/116 111/131/118 90/107/96 92/109/98
f 112/132/117 114/134/119 113/133/120 111/131/118
f 111/131/118 113/133/120 88/105/94 90/107/96
f 114/134/119 116/136/121 115/135/122 113/133/120
f 113/133/120 115/135/122 86/103/93 88/105/94
f 116/136/121 119/140/123 117/137/124 115/135/122
f 115/135/122 117/137/124 84/101/91 86/103/93
f 128/158/92 84/101/91 117/137/124 118/138/125
f 118/138/125 117/137/124 119/140/123 120/141/126
f 120/141/126 119/140/123 121/143/127 122/145/128
f 123/148/129 121/143/127 119/140/123 116/136/121
f 37/46/39 127/156/43 122/146/128 121/144/127
f 33/41/36 37/46/39 121/144/127 123/149/129
f 124/150/130 123/148/129 116/136/121 114/134/119
f 124/151/130 30/38/33 33/41/36 123/149/129
f 125/152/131 124/150/130 114/134/119 112/132/117
f 125/153/131 27/35/30 30/38/33 124/151/130
f 126/154/132 125/152/131 112/132/117 110/130/115
f 126/155/132 24/32/27 27/35/30 125/153/131
f 3/4/5 126/154/132 110/130/115 108/128/6
f 3/5/5 21/29/8 24/32/27 126/155/132
f 122/147/128 127/157/43 36/45/42 39/49/41 41/52/45 131/165/48 79/94/86 81/97/87 83/100/89 128/159/92 118/139/125 120/142/126
f 10/16/14 129/161/13 104/124/110 102/121/109 100/118/108 130/163/69 62/76/66 60/73/64 58/70/65 132/167/19 14/22/16 12/19/15
