# Blender v3.0.1 OBJ File: ''
# www.blender.org
mtllib beam_low.mtl
o Cube.001_Cube.002
v -0.947008 2.183759 4.502653
v -0.916754 4.168375 4.660402
v -0.947008 2.184126 -4.594551
v -0.916754 4.168018 -4.648159
v 0.949507 2.191258 4.502653
v 0.923280 4.181417 4.660402
v 0.949507 2.191622 -4.594753
v 0.923280 4.181054 -4.648511
v -0.992435 3.078052 4.572602
v -0.992435 3.078093 -4.618708
v 1.022577 3.106409 -4.619473
v 1.022577 3.106379 4.572602
v -1.086986 2.634260 -4.606714
v 1.067823 2.619085 -4.606304
v 1.067823 2.618877 4.537627
v -1.086986 2.634057 4.537627
v -0.013368 2.159465 -4.593884
v -0.000018 4.236461 -4.650009
v -0.013368 2.159089 4.502653
v -0.000018 4.236843 4.660402
v 0.015071 3.092216 4.572602
v 0.015071 3.092251 -4.619090
v -0.009582 2.626673 -4.606509
v -0.009582 2.626467 4.537627
v -0.992160 3.840011 4.631674
v -0.992160 3.839774 -4.639289
v 0.997634 3.857810 -4.639777
v 0.997634 3.858054 4.631674
v 0.004945 3.866581 4.631674
v 0.004945 3.866334 -4.640007
vt 0.514512 0.002935
vt 0.548288 0.000000
vt 0.548288 0.950486
vt 0.514524 0.949582
vt 0.779743 0.324066
vt 0.741940 0.323310
vt 0.750744 0.229275
vt 0.783998 0.222790
vt 0.170064 0.000891
vt 0.203223 0.000000
vt 0.203223 0.950522
vt 0.170053 0.947588
vt 0.779857 0.115636
vt 0.741940 0.116392
vt 0.745790 0.022604
vt 0.779171 0.013789
vt 0.548288 0.000089
vt 0.646617 0.000000
vt 0.646617 0.928926
vt 0.548288 0.928926
vt 0.296879 0.950675
vt 0.203223 0.950487
vt 0.203223 0.000000
vt 0.296879 0.000000
vt 0.906727 0.109926
vt 0.859146 0.114029
vt 0.857163 0.011163
vt 0.902292 0.000000
vt 0.043456 0.004303
vt 0.093303 0.002961
vt 0.093263 0.941553
vt 0.043399 0.937980
vt 0.906249 0.329777
vt 0.858803 0.325673
vt 0.860793 0.222807
vt 0.910697 0.219852
vt 0.391112 0.012542
vt 0.436755 0.008969
vt 0.436795 0.947484
vt 0.391168 0.946261
vt 0.954544 0.003570
vt 1.000000 0.000000
vt 1.000000 0.933718
vt 0.954561 0.932475
vt 0.953933 0.331757
vt 0.953933 0.233384
vt 0.000073 0.005481
vt 0.000000 0.934407
vt 0.954544 0.107946
vt 0.948860 0.012750
vt 0.954544 0.206319
vt 0.911161 0.219852
vt 0.948233 0.426952
vt 0.901801 0.439702
vt 0.856813 0.428539
vt 0.861130 0.216896
vt 0.391112 0.950523
vt 0.391112 0.000000
vt 0.646616 0.000000
vt 0.741940 0.000068
vt 0.741940 0.928905
vt 0.646617 0.928905
vt 0.784098 0.216913
vt 0.750718 0.210428
vt 0.779055 0.425913
vt 0.745802 0.417098
vn -0.7289 0.0329 0.6838
vn -0.5207 0.5835 0.6231
vn -0.5235 0.6013 -0.6035
vn -0.7270 0.0655 -0.6835
vn 0.0000 -0.0270 -0.9996
vn -0.0053 0.7121 -0.7020
vn 0.5193 0.6058 -0.6027
vn 0.7225 0.0768 -0.6871
vn 0.5168 0.5879 0.6223
vn 0.7252 0.0434 0.6871
vn 0.0008 -0.0798 0.9968
vn -0.0050 0.6936 0.7203
vn 0.0024 -0.7231 -0.6907
vn 0.4976 -0.6396 -0.5858
vn 0.4993 -0.6549 0.5672
vn 0.0023 -0.7397 0.6729
vn 0.0000 -0.0760 0.9971
vn 0.0005 -0.0759 0.9971
vn -0.6809 0.0120 0.7322
vn -0.7551 -0.0750 0.6513
vn 0.7400 -0.0815 -0.6676
vn 0.6995 0.0244 -0.7142
vn 0.7015 -0.0105 0.7126
vn 0.7382 -0.1095 0.6656
vn -0.6793 0.0506 -0.7321
vn -0.7552 -0.0490 -0.6537
vn -0.4859 -0.6630 0.5694
vn -0.4846 -0.6482 -0.5873
usemtl None
s 1
f 25/1/1 2/2/2 4/3/3 26/4/4
f 30/5/5 18/6/6 8/7/7 27/8/8
f 27/9/8 8/10/7 6/11/9 28/12/10
f 29/13/11 20/14/12 2/15/2 25/16/1
f 17/17/13 7/18/14 5/19/15 19/20/16
f 18/21/6 4/22/3 2/23/2 20/24/12
f 24/25/17 21/26/18 9/27/19 16/28/20
f 14/29/21 11/30/22 12/31/23 15/32/24
f 23/33/5 22/34/5 11/35/22 14/36/21
f 16/37/20 9/38/19 10/39/25 13/40/26
f 1/41/27 16/42/20 13/43/26 3/44/28
f 17/45/13 23/33/5 14/36/21 7/46/14
f 7/47/14 14/29/21 15/32/24 5/48/15
f 19/49/16 24/25/17 16/28/20 1/50/27
f 5/51/15 15/52/24 24/25/17 19/49/16
f 3/53/28 13/54/26 23/33/5 17/45/13
f 13/54/26 10/55/25 22/34/5 23/33/5
f 15/52/24 12/56/23 21/26/18 24/25/17
f 8/57/7 18/21/6 20/24/12 6/58/9
f 3/59/28 17/60/13 19/61/16 1/62/27
f 28/63/10 6/64/9 20/14/12 29/13/11
f 26/65/4 4/66/3 18/6/6 30/5/5
f 10/55/25 26/65/4 30/5/5 22/34/5
f 12/56/23 28/63/10 29/13/11 21/26/18
f 21/26/18 29/13/11 25/16/1 9/27/19
f 11/30/22 27/9/8 28/12/10 12/31/23
f 22/34/5 30/5/5 27/8/8 11/35/22
f 9/38/19 25/1/1 26/4/4 10/39/25
